<?xml version="1.0" encoding="UTF-8"?>
<svg id="Capa_1" data-name="Capa 1" xmlns="http://www.w3.org/2000/svg" version="1.1" viewBox="0 0 153.1 153.1">
  <defs>
    <style>
      .cls-1 {
        fill: #1d1d1b;
        stroke-width: 0px;
      }
    </style>
  </defs>
  <path class="cls-1" d="M99.4,45.7h0c-9.2,7-19.2,21.1-22.8,28.6-3.6-7.6-13.6-21.7-22.8-28.6-6.7-5-17.5-8.9-17.5,3.5s1.4,20.7,2.2,23.7c2.9,10.3,13.4,12.9,22.7,11.4-16.3,2.8-20.4,12-11.5,21.2,17,17.5,24.4-4.4,26.3-10,.4-1,.5-1.5.5-1.1,0-.4.2,0,.5,1.1,1.9,5.6,9.3,27.5,26.3,10,9-9.2,4.8-18.4-11.5-21.2,9.3,1.6,19.8-1,22.7-11.4.8-3,2.2-21.2,2.2-23.7,0-12.4-10.8-8.5-17.5-3.5Z"/>
</svg>