<svg width="16" height="16" viewBox="0 0 16 16" fill="none" xmlns="http://www.w3.org/2000/svg">
<path d="M4 9.42H5.063C5.4 12.323 7.317 14 10.34 14C10.962 14 11.507 13.932 11.999 13.815V12.515C11.515 12.634 10.954 12.685 10.34 12.685C8.24 12.685 6.885 11.487 6.565 9.421H10.582V8.493H6.497V7.557C6.49567 7.447 6.49833 7.33733 6.505 7.228H10.583V6.301H6.618C7.006 4.403 8.337 3.316 10.341 3.316C10.955 3.316 11.516 3.366 12 3.493V2.194C11.4574 2.05933 10.9 1.99414 10.341 2C7.413 2 5.521 3.569 5.097 6.3H4V7.228H5.01V8.493H4V9.42Z" fill="#9D2235"/>
</svg>
