<svg width="16" height="16" viewBox="0 0 16 16" fill="none" xmlns="http://www.w3.org/2000/svg">
<path d="M8.39 12.648C8.37958 12.7074 8.37456 12.7677 8.375 12.828C8.375 13.133 8.585 13.336 8.875 13.336C9.141 13.336 9.367 13.164 9.43 12.859L9.984 10.156H11.188C11.609 10.156 11.805 9.92201 11.805 9.60901C11.805 9.29701 11.617 9.07901 11.188 9.07901H10.203L10.719 6.55501H11.984C12.414 6.55501 12.602 6.32801 12.602 6.00801C12.602 5.69501 12.414 5.48401 11.984 5.48401H10.938L11.414 3.18001C11.4238 3.12588 11.4292 3.07103 11.43 3.01601C11.4308 2.94803 11.418 2.88057 11.3924 2.8176C11.3667 2.75463 11.3287 2.69743 11.2807 2.64935C11.2326 2.60128 11.1754 2.5633 11.1124 2.53765C11.0494 2.51201 10.982 2.49921 10.914 2.50001C10.7881 2.49761 10.6654 2.53927 10.5669 2.61779C10.4685 2.69631 10.4006 2.80675 10.375 2.93001L9.852 5.48401H7.617L8.094 3.18001C8.102 3.14001 8.109 3.06201 8.109 3.01601C8.10983 2.94743 8.09682 2.87938 8.07074 2.81594C8.04466 2.7525 8.00605 2.69497 7.95722 2.6468C7.9084 2.59863 7.85036 2.5608 7.78657 2.53558C7.72279 2.51036 7.65457 2.49826 7.586 2.50001C7.46148 2.49948 7.34061 2.54199 7.24384 2.62035C7.14708 2.69871 7.08036 2.80811 7.055 2.93001L6.53 5.48401H5.414C4.984 5.48401 4.797 5.70401 4.797 6.01601C4.797 6.32801 4.984 6.55501 5.414 6.55501H6.32L5.805 9.07801H4.609C4.188 9.07801 4 9.29701 4 9.60901C4 9.92101 4.188 10.156 4.61 10.156H5.586L5.07 12.648C5.062 12.688 5.055 12.773 5.055 12.828C5.055 13.133 5.265 13.336 5.555 13.336C5.82 13.336 6.047 13.164 6.109 12.859L6.664 10.156H8.906L8.39 12.648ZM7.39 6.53901H9.656L9.141 9.10201H6.859L7.39 6.53901Z" fill="#9D2235"/>
</svg>
