<svg width="36" height="36" viewBox="0 0 36 36" fill="none" xmlns="http://www.w3.org/2000/svg">
<path d="M30.734 11.5225C28.5381 9.78859 25.6299 9.75302 24.565 10.007L24.4414 10.0349C23.211 10.3254 21.2572 10.807 18.9706 13.6445C18.9578 13.6605 18.9446 13.6769 18.9327 13.6929L18.9031 13.728C18.8808 13.7594 18.8652 13.7968 18.8652 13.8383C18.8652 13.8725 18.8739 13.904 18.8903 13.9332L18.9432 14.0212C19.2301 14.501 19.5922 15.1189 19.8987 15.689C19.9014 15.6945 19.9041 15.699 19.9064 15.7059C19.9393 15.7693 20.004 15.8135 20.0811 15.8135C20.134 15.8135 20.1819 15.7921 20.2161 15.7583C20.2302 15.7401 20.2453 15.72 20.2576 15.6999C22.2875 12.8929 23.8836 12.5053 24.9636 12.2517L25.0926 12.2207C25.6531 12.0862 27.7847 12.0939 29.3225 13.3089C30.5233 14.2565 31.1326 15.7652 31.1326 17.7909C31.1326 21.1899 29.4794 22.5193 28.0921 23.036C25.9432 23.8391 23.8823 22.7651 23.8668 22.7578L23.7751 22.7122C22.5939 22.1996 20.8327 21.1334 19.1722 17.7996C15.8261 11.0778 13.0269 10.4458 11.1748 10.0262L11.0754 10.0038C10.2322 9.8123 7.30385 9.67731 5.0017 11.5147C3.79817 12.4743 2.36572 14.3404 2.36572 17.7773C2.36572 19.8719 2.79624 21.2542 3.90172 22.709C4.14434 23.0406 6.62207 26.2243 11.4134 25.3062C12.18 25.1594 13.2193 24.7936 14.3617 23.9372L15.4166 24.8885C15.485 24.951 15.5949 24.9459 15.6578 24.8762C15.6879 24.8438 15.7012 24.8023 15.7007 24.7617V24.7476L16.4618 20.068L16.4623 20.016C16.4619 19.9704 16.4427 19.9244 16.4053 19.892C16.3729 19.861 16.3332 19.8496 16.2936 19.8496L16.2607 19.8523L16.2119 19.8573L11.7294 21.1119L11.6478 21.1256C11.6154 21.1324 11.5848 21.1493 11.562 21.1758C11.4968 21.2464 11.5032 21.3559 11.5748 21.4184L11.6268 21.4676L12.6315 22.3743C11.983 22.7943 11.4179 22.9872 10.9869 23.0702C7.52003 23.7319 5.80846 21.4608 5.7437 21.3728L5.71907 21.339C4.91368 20.2814 4.64233 19.383 4.64233 17.7773C4.64233 15.7451 5.24022 14.236 6.42094 13.2938C7.91998 12.0976 9.98727 12.0903 10.5719 12.223L10.6723 12.2458C12.1896 12.5897 14.2696 13.0594 17.1341 18.8134C18.6213 21.8006 20.4851 23.7534 22.8302 24.7836C23.1293 24.9359 24.5527 25.6113 26.4006 25.6113C27.1727 25.6113 28.0191 25.4932 28.8879 25.1708C30.247 24.6632 33.4092 22.9302 33.4092 17.7909C33.4092 14.356 31.954 12.4861 30.734 11.5225Z" fill="#CB841A"/>
</svg>
