<svg width="36" height="36" viewBox="0 0 36 36" fill="none" xmlns="http://www.w3.org/2000/svg">
<path d="M5.62082 12.1761C5.62082 11.5131 5.08246 10.9766 4.42001 10.9766C3.75786 10.9766 3.22181 11.5131 3.22181 12.1761C3.22181 12.8383 3.75786 13.3752 4.42001 13.3752C5.08246 13.3752 5.62082 12.8383 5.62082 12.1761Z" fill="#E5243B"/>
<path d="M30.9075 10.9766C30.2443 10.9766 29.7067 11.5131 29.7067 12.1761C29.7067 12.8383 30.2443 13.3752 30.9075 13.3752C31.5694 13.3752 32.1054 12.8383 32.1054 12.1761C32.1054 11.5131 31.5694 10.9766 30.9075 10.9766Z" fill="#E5243B"/>
<path d="M33.76 15.4306C33.76 14.5959 33.1219 13.9115 32.308 13.838L32.3061 13.8377C32.2778 13.8342 32.2502 13.8308 32.2165 13.8308H29.5944C29.5621 13.8308 29.5332 13.8344 29.5063 13.838C28.6914 13.9115 28.0526 14.5959 28.0526 15.4306V18.755C28.0526 19.0105 28.2598 19.2196 28.5172 19.2196C28.774 19.2196 28.9827 19.0105 28.9827 18.755V15.8996C28.9827 15.7927 29.0127 15.6476 29.2095 15.6476C29.3439 15.6476 29.3732 15.7915 29.3777 15.8825V24.4407C29.3777 24.8083 29.6755 25.108 30.0461 25.108C30.4158 25.108 30.7132 24.8083 30.7132 24.4407V19.509C30.7152 19.4545 30.7363 19.313 30.9065 19.313H30.9074C31.0767 19.313 31.095 19.4545 31.0969 19.509V24.4407C31.0969 24.8083 31.3965 25.108 31.7667 25.108C32.1365 25.108 32.4342 24.8083 32.4342 24.4407V15.8825C32.4389 15.7915 32.4676 15.6476 32.6028 15.6476C32.799 15.6476 32.83 15.7927 32.83 15.8996V18.755C32.83 19.0105 33.0375 19.2196 33.2952 19.2196C33.5516 19.2196 33.76 19.0105 33.76 18.755V15.4306Z" fill="#E5243B"/>
<path d="M22.5718 12.806C22.5718 12.1784 22.0645 11.6689 21.4367 11.6689C20.8087 11.6689 20.3001 12.1784 20.3001 12.806C20.3001 13.4336 20.8087 13.9412 21.4367 13.9412C22.0645 13.9412 22.5718 13.4336 22.5718 12.806Z" fill="#E5243B"/>
<path d="M18.2031 18.4514L19.1475 15.3783C19.1475 15.3783 19.486 14.4899 20.2331 14.4899H22.6406C23.3879 14.4899 23.7253 15.3783 23.7253 15.3783L24.6696 18.4514C24.6696 18.4514 24.8388 19.0146 24.3596 19.1553C23.8849 19.296 23.7397 18.7463 23.7397 18.7463L22.9783 16.1811C22.9783 16.1811 22.9373 15.984 22.7885 16.0269C22.6406 16.0694 22.6959 16.2801 22.6959 16.2801L24.0205 21.087H22.7885V24.5298C22.7885 24.8553 22.5236 25.1204 22.1958 25.1204C21.868 25.1204 21.604 24.8553 21.604 24.5298V21.087H21.2677V24.5298C21.2677 24.8553 21.0036 25.1204 20.6767 25.1204C20.3499 25.1204 20.0843 24.8553 20.0843 24.5298V21.087H18.8516L20.1773 16.2801C20.1773 16.2801 20.2331 16.0694 20.0843 16.0269C19.9359 15.984 19.8946 16.1811 19.8946 16.1811L19.1332 18.7463C19.1332 18.7463 18.9889 19.296 18.5128 19.1553C18.0344 19.0146 18.2031 18.4514 18.2031 18.4514Z" fill="#E5243B"/>
<path d="M15.7674 12.806C15.7674 12.1784 15.2594 11.6689 14.6319 11.6689C14.0036 11.6689 13.4958 12.1784 13.4958 12.806C13.4958 13.4336 14.0036 13.9412 14.6319 13.9412C15.2594 13.9412 15.7674 13.4336 15.7674 12.806Z" fill="#E5243B"/>
<path d="M11.3983 18.4514L12.3424 15.3783C12.3424 15.3783 12.6811 14.4899 13.4282 14.4899H15.8355C16.5831 14.4899 16.92 15.3783 16.92 15.3783L17.8644 18.4514C17.8644 18.4514 18.0336 19.0146 17.5545 19.1553C17.0793 19.296 16.9341 18.7463 16.9341 18.7463L16.1736 16.1811C16.1736 16.1811 16.1318 15.984 15.9835 16.0269C15.8355 16.0694 15.8917 16.2801 15.8917 16.2801L17.216 21.087H15.9835V24.5298C15.9835 24.8553 15.719 25.1204 15.3912 25.1204C15.0629 25.1204 14.7998 24.8553 14.7998 24.5298V21.087H14.4632V24.5298C14.4632 24.8553 14.1988 25.1204 13.8717 25.1204C13.5455 25.1204 13.2791 24.8553 13.2791 24.5298V21.087H12.0468L13.3717 16.2801C13.3717 16.2801 13.4282 16.0694 13.2791 16.0269C13.1308 15.984 13.0895 16.1811 13.0895 16.1811L12.3279 18.7463C12.3279 18.7463 12.1836 19.296 11.7082 19.1553C11.5594 19.1116 11.4732 19.027 11.4251 18.9312C11.3933 19.0175 11.3393 19.1319 11.3393 19.1319L10.4581 20.7245C10.4581 20.7245 10.4004 20.8433 10.4004 20.9519V21.28L10.9049 23.1371H10.4004V24.655C10.4004 24.9133 10.1909 25.1204 9.93355 25.1204C9.67604 25.1204 9.46728 24.9133 9.46728 24.655V23.1931C9.46728 23.1931 9.4703 23.1689 9.46761 23.1371H9.18537C9.18265 23.1689 9.18567 23.1931 9.18567 23.1931V24.655C9.18567 24.9133 8.97863 25.1204 8.72124 25.1204C8.46325 25.1204 8.25481 24.9133 8.25481 24.655H8.25278V23.1371H7.75022L8.25278 21.2927V20.9519C8.25278 20.8433 8.19469 20.7245 8.19469 20.7245L7.24112 18.9995C7.24112 18.9995 7.23505 18.9819 7.22809 18.9576C7.15284 19.1123 6.99411 19.2196 6.80989 19.2196C6.55298 19.2196 6.34406 19.0105 6.34406 18.755V15.8996C6.34406 15.7927 6.31483 15.6476 6.11789 15.6476C5.98353 15.6476 5.95327 15.7915 5.94937 15.8825V24.4407C5.94937 24.8083 5.65162 25.108 5.28087 25.108C4.9115 25.108 4.61328 24.8083 4.61328 24.4407V19.509C4.61157 19.4545 4.59105 19.313 4.42035 19.313C4.2506 19.313 4.23238 19.4545 4.22912 19.509V24.4407C4.22912 24.8083 3.93062 25.108 3.5611 25.108C3.19094 25.108 2.89351 24.8083 2.89351 24.4407V15.8825C2.8879 15.7915 2.85931 15.6476 2.72452 15.6476C2.52848 15.6476 2.49743 15.7927 2.49743 15.8996V18.755C2.49743 18.899 2.4313 19.0282 2.3276 19.1136C2.34887 19.1739 2.355 19.2405 2.34228 19.3079L1.2769 24.953C1.23841 25.157 1.04187 25.2911 0.837918 25.2526C0.633967 25.2141 0.499835 25.0176 0.538325 24.8136L1.60371 19.1685C1.6132 19.1182 1.6323 19.0722 1.65875 19.0319C1.60093 18.9544 1.56668 18.8585 1.56668 18.755V15.4306C1.56668 14.5959 2.20524 13.9115 3.01916 13.838C3.04728 13.8344 3.07646 13.8308 3.11062 13.8308H5.73318C5.7653 13.8308 5.79389 13.8344 5.82121 13.838C6.63652 13.9115 7.2746 14.5959 7.2746 15.4306V18.6456C7.33734 18.5605 7.43839 18.5051 7.55227 18.5051C7.6751 18.5051 7.78199 18.5695 7.8441 18.6665L7.84676 18.6641C7.85604 18.6719 7.90908 18.7608 7.98146 18.8822C8.13084 19.1327 8.36261 19.5213 8.46198 19.6196C8.61547 19.7746 8.75432 19.7571 8.75432 19.7571H9.90014C9.90014 19.7571 10.0382 19.7746 10.192 19.6196C10.2904 19.5209 10.5243 19.1297 10.6739 18.8793C10.7456 18.7594 10.798 18.6718 10.8069 18.6641L10.8108 18.6665C10.8711 18.5695 10.9778 18.5051 11.1022 18.5051C11.2105 18.5051 11.3071 18.5549 11.3704 18.6324C11.3753 18.5283 11.3983 18.4514 11.3983 18.4514Z" fill="#E5243B"/>
<path d="M26.3875 19.1619C26.9105 19.1619 27.3328 18.7386 27.3328 18.2159C27.3328 17.6928 26.9105 17.2711 26.3875 17.2711C25.8643 17.2711 25.4415 17.6928 25.4415 18.2159C25.4415 18.7386 25.8643 19.1619 26.3875 19.1619Z" fill="#E5243B"/>
<path d="M24.2582 22.5453C24.036 22.4428 24.074 22.2087 24.1201 22.0982L24.1167 22.0974C24.1191 22.0702 24.25 21.739 24.3543 21.475L24.3545 21.4746C24.3982 21.3639 24.4373 21.265 24.4602 21.2055C25.0041 19.8076 25.1596 19.5552 25.6523 19.5393C26.1457 19.525 26.3846 19.5345 26.3846 19.5345C26.3846 19.5345 26.608 19.5262 26.9823 19.5345L27.0105 19.5353C27.3751 19.545 27.7495 19.5549 27.9573 20.1617C28.003 20.2951 28.2722 20.9625 28.4556 21.4172C28.5521 21.6564 28.6248 21.8368 28.6288 21.8494L28.6257 21.8529C28.695 21.9499 28.7145 22.0783 28.6643 22.1979C28.5872 22.3812 28.3771 22.4678 28.1956 22.3915C28.1418 22.3696 27.9668 21.868 27.9668 21.868L27.5637 20.746C27.5637 20.746 27.5036 20.6649 27.5036 20.7786V24.6364C27.5036 24.9046 27.2849 25.1209 27.0173 25.1209C26.7492 25.1209 26.5314 24.9046 26.5314 24.6364V23.1137C26.5314 23.1137 26.5583 22.8987 26.3846 22.8987C26.2108 22.8987 26.2396 23.1137 26.2396 23.1137V24.6364C26.2396 24.9046 26.0225 25.1209 25.754 25.1209C25.4853 25.1209 25.2689 24.9046 25.2689 24.6364H25.2664V20.7786C25.2664 20.6649 25.1776 20.7746 25.1776 20.7746L24.6635 22.4134C24.6635 22.4134 24.5185 22.6646 24.2582 22.5453Z" fill="#E5243B"/>
<path d="M9.32692 19.1619C9.84973 19.1619 10.2721 18.7386 10.2721 18.2159C10.2721 17.6928 9.84973 17.2711 9.32692 17.2711C8.80391 17.2711 8.38174 17.6928 8.38174 18.2159C8.38174 18.7386 8.80391 19.1619 9.32692 19.1619Z" fill="#E5243B"/>
</svg>
