<svg width="36" height="36" viewBox="0 0 36 36" fill="none" xmlns="http://www.w3.org/2000/svg">
<path d="M28.3456 4.32271C28.3456 4.32271 27.7425 5.12348 27.9175 5.90396C28.0943 6.68495 28.9841 7.14967 28.9841 7.14967C28.9841 7.14967 29.5878 6.34798 29.4117 5.56819C29.2355 4.7868 28.3456 4.32271 28.3456 4.32271Z" fill="#00689D"/>
<path d="M27.3629 8.89748C27.3629 8.89748 27.966 8.0954 27.7905 7.31486C27.6137 6.53393 26.7244 6.07098 26.7244 6.07098C26.7244 6.07098 26.1196 6.87129 26.2957 7.65183C26.473 8.43231 27.3629 8.89748 27.3629 8.89748Z" fill="#00689D"/>
<path d="M29.8418 8.03932C29.8418 8.03932 30.478 8.68178 31.2037 8.61674C31.93 8.55306 32.4664 7.80662 32.4664 7.80662C32.4664 7.80662 31.8308 7.16376 31.1051 7.22812C30.3794 7.2931 29.8418 8.03932 29.8418 8.03932Z" fill="#00689D"/>
<path d="M30.8852 4.60754C30.2951 5.20656 30.3784 6.26632 30.3784 6.26632C30.3784 6.26632 31.4187 6.3565 32.0099 5.75839C32.6005 5.15982 32.5172 4.10069 32.5172 4.10069C32.5172 4.10069 31.4757 4.00943 30.8852 4.60754Z" fill="#00689D"/>
<path d="M29.5831 10.4203C30.3059 10.5058 30.9854 9.88495 30.9854 9.88495C30.9854 9.88495 30.4935 9.12631 29.7712 9.0408C29.0478 8.95568 28.3683 9.57654 28.3683 9.57654C28.3683 9.57654 28.8602 10.3348 29.5831 10.4203Z" fill="#00689D"/>
<path d="M30.2285 22.0406H24.8259C24.4035 22.0406 24.0609 22.3815 24.0609 22.8046C24.0609 23.2258 24.4035 23.5689 24.8259 23.5689H30.2285C30.6514 23.5689 30.9923 23.2258 30.9923 22.8046C30.9923 22.3815 30.6514 22.0406 30.2285 22.0406Z" fill="#00689D"/>
<path d="M30.2285 30.4658H24.8259C24.4035 30.4658 24.0609 30.8074 24.0609 31.2298C24.0609 31.6516 24.4035 31.9942 24.8259 31.9942H30.2285C30.6514 31.9942 30.9923 31.6516 30.9923 31.2298C30.9923 30.8074 30.6514 30.4658 30.2285 30.4658Z" fill="#00689D"/>
<path d="M5.93115 20.1854C5.8039 20.1455 5.67836 20.1107 5.55568 20.087C5.55568 20.087 5.69434 20.1311 5.93115 20.1854Z" fill="#00689D"/>
<path d="M14.6874 23.4922C15.0432 23.4984 15.4006 23.4875 15.7586 23.463V26.2866L14.6874 26.2621V23.4922ZM30.0302 24.1032H25.0233C24.7833 24.1032 24.5883 24.2987 24.5883 24.5377V26.0539L21.3202 26.4131L16.5453 26.3042V23.3884C17.1798 23.3063 17.8148 23.1804 18.4453 23.0025C23.0412 21.7056 24.0439 18.8426 23.9436 16.2141C23.8433 13.5354 24.7001 12.4962 25.9314 12.0339C26.2843 11.9016 26.6332 11.8179 26.9518 11.7635C26.9661 12.4209 27.0989 13.1854 27.3931 14.0968C27.5019 14.0906 27.6108 14.0815 27.7191 14.0697C27.409 13.1382 27.2762 12.3713 27.2688 11.7175C27.9044 11.6422 28.3587 11.685 28.3587 11.685C28.3587 11.685 27.9283 11.4536 27.3218 10.9461C27.5282 9.67833 28.2824 8.90008 29.0616 8.1033C29.4892 7.66486 29.9315 7.21325 30.2793 6.67346L30.0079 6.49845C29.679 7.01042 29.2469 7.45108 28.8296 7.87795C28.0709 8.65444 27.3053 9.44745 27.0453 10.7067C26.799 10.4838 26.5317 10.2203 26.2586 9.91439C25.1248 8.64309 23.6665 9.5768 21.5858 11.5139C19.5039 13.4503 16.8873 13.5165 14.3306 10.9011C10.9575 7.44818 8.01538 7.46824 5.99792 7.66417C7.37805 8.2514 7.8609 9.5414 8.55923 12.8193C9.2912 16.2593 11.1376 17.8149 13.6636 18.0305C12.4933 18.2195 12.1894 18.3821 10.3071 19.6824C8.83685 20.696 6.76865 20.3756 5.93009 20.1852C7.46983 20.6646 9.29291 22.2797 10.9233 22.8417C11.873 23.1677 12.8752 23.3702 13.9002 23.4517V26.2432L4.84354 26.0488V27.9968L21.3202 27.6303L24.5883 27.9899V29.5053C24.5883 29.7446 24.7833 29.9409 25.0233 29.9409H30.0302C30.2702 29.9409 30.4657 29.7446 30.4657 29.5053V24.5377C30.4657 24.2987 30.2702 24.1032 30.0302 24.1032Z" fill="#00689D"/>
<path d="M4.37601 27.6741C4.37601 28.0845 4.08927 28.4181 3.7364 28.4181H3.35161C2.99931 28.4181 2.71143 28.0845 2.71143 27.6741V26.3282C2.71143 25.9167 2.99931 25.5831 3.35161 25.5831H3.7364C4.08927 25.5831 4.37601 25.9167 4.37601 26.3282V27.6741Z" fill="#00689D"/>
</svg>
