<svg width="36" height="36" viewBox="0 0 36 36" fill="none" xmlns="http://www.w3.org/2000/svg">
<path d="M24.6817 24.2391C23.6888 24.2391 22.8843 23.4336 22.8843 22.4412C22.8843 21.4493 23.6888 20.6452 24.6817 20.6452C25.6766 20.6452 26.4811 21.4493 26.4811 22.4412C26.4811 23.4336 25.6766 24.2391 24.6817 24.2391ZM32.4876 23.4014C31.8075 22.4828 27.4155 16.8832 21.2578 16.8832C15.9106 16.8832 10.1901 21.7332 10.1901 21.7332C10.1901 21.7332 8.04123 17.3349 3.64627 16.9127C3.62 16.9127 3.59224 16.9067 3.56349 16.9067H3.53622C3.44452 16.9115 3.35826 17.0007 3.36818 17.0805C3.38057 17.158 3.43708 17.2417 3.43708 17.2417C4.00368 18.1821 5.44966 20.8584 5.44966 23.5313C5.44966 26.2136 3.99476 28.8974 3.43411 29.8323L3.39544 29.8923C3.37908 29.921 3.36818 29.9492 3.36818 29.9854C3.36818 30.0776 3.44055 30.1504 3.53077 30.1584L3.57786 30.1549C3.59273 30.1549 3.6086 30.1549 3.62396 30.1504C8.0333 29.7395 10.1901 25.3277 10.1901 25.3277C10.1901 25.3277 15.9106 30.1787 21.2578 30.1787C27.4155 30.1787 31.8075 24.5787 32.4876 23.6622C32.5065 23.6372 32.5213 23.615 32.5347 23.5991C32.5427 23.5778 32.5491 23.5575 32.5491 23.5313C32.5491 23.5075 32.5427 23.4831 32.5347 23.4643C32.5213 23.446 32.5065 23.4246 32.4876 23.4014Z" fill="#0A97D9"/>
<path d="M9.78674 11.8635C9.80062 11.8432 9.81401 11.8288 9.83334 11.8149C9.8621 11.7965 9.89481 11.7818 9.9305 11.7818C9.9766 11.7818 10.0202 11.8006 10.051 11.8308C10.0524 11.8337 10.0564 11.8362 10.0589 11.8381C13.4153 15.0385 16.9374 12.4444 17.67 11.8381L17.7419 11.7698C17.7627 11.7615 17.7845 11.7583 17.8083 11.7583C17.8336 11.7583 17.8584 11.7615 17.8792 11.7698L17.9511 11.8381C18.6827 12.4444 22.2033 15.0385 25.5612 11.8381C25.5622 11.8362 25.5652 11.8337 25.5677 11.8308C25.5989 11.8006 25.64 11.7818 25.6866 11.7818C25.7238 11.7818 25.757 11.7965 25.7843 11.8149C25.8051 11.8288 25.8185 11.8432 25.8338 11.8635C26.4842 12.5034 29.2959 14.9245 32.2716 12.3395C32.3024 12.3077 32.3237 12.266 32.3237 12.2149V10.9861C32.3237 10.8883 32.2449 10.8101 32.1482 10.8101C32.1353 10.8101 32.1234 10.8151 32.11 10.818C32.0823 10.8314 32.0535 10.8467 32.0208 10.8622C31.1072 11.3207 28.2708 12.4072 25.6975 9.97532C25.6737 9.95252 25.6485 9.92927 25.6232 9.90488C25.5989 9.8915 25.5766 9.88703 25.5478 9.88703C25.5295 9.88703 25.5106 9.89149 25.4948 9.90042C25.4556 9.91048 25.4259 9.93467 25.4051 9.96645C24.6382 10.5502 21.1172 12.9341 17.9813 10.0096L17.9357 9.96332C17.903 9.93214 17.8584 9.91435 17.8083 9.91435C17.7627 9.91435 17.7166 9.93214 17.6859 9.96332L17.6373 10.0096C14.5034 12.9341 10.9789 10.5502 10.2126 9.96645C10.1927 9.93467 10.163 9.91048 10.1263 9.90042C10.108 9.89149 10.0886 9.88703 10.0698 9.88703C10.0445 9.88703 10.0202 9.8915 9.99643 9.90488C9.97214 9.92927 9.94637 9.95252 9.92009 9.97532C7.34637 12.4072 4.51289 11.3207 3.59782 10.8622C3.56559 10.8467 3.53536 10.8314 3.5076 10.818C3.49372 10.8151 3.48529 10.8101 3.47389 10.8101C3.37623 10.8101 3.29692 10.8883 3.29692 10.9861V12.2149C3.29692 12.266 3.31626 12.3077 3.34798 12.3395C6.32075 14.9245 9.13538 12.5034 9.78674 11.8635Z" fill="#0A97D9"/>
<path d="M3.50756 6.35719C3.49368 6.35431 3.48426 6.35045 3.47335 6.35045C3.37619 6.35045 3.29639 6.42922 3.29639 6.52875V7.7537C3.29639 7.8058 3.31671 7.85091 3.34794 7.88055C6.32121 10.4638 9.13534 8.04379 9.7872 7.40383C9.80059 7.38484 9.81348 7.36606 9.83331 7.35461C9.86305 7.33622 9.89477 7.32189 9.93096 7.32189C9.97656 7.32189 10.0197 7.33973 10.0499 7.36953C10.0524 7.37339 10.0564 7.37592 10.0589 7.37746C13.4168 10.5818 16.9373 7.98569 17.67 7.37746L17.7424 7.31203C17.7627 7.30157 17.785 7.2981 17.8083 7.2981C17.8336 7.2981 17.8583 7.30157 17.8782 7.31203L17.9505 7.37746C18.6837 7.98569 22.2042 10.5818 25.5612 7.37746C25.5617 7.37592 25.5661 7.37339 25.5676 7.36953C25.5993 7.33973 25.641 7.32189 25.6866 7.32189C25.7238 7.32189 25.7575 7.33622 25.7847 7.35461C25.8051 7.36606 25.8189 7.38484 25.8343 7.40383C26.4852 8.04379 29.2968 10.4638 32.2716 7.88055C32.3023 7.85091 32.3227 7.8058 32.3227 7.7537V6.52875C32.3227 6.42922 32.2448 6.35045 32.1487 6.35045C32.1353 6.35045 32.1239 6.35431 32.1095 6.35719C32.0827 6.3731 32.0545 6.38797 32.0213 6.40443C31.1072 6.86182 28.2717 7.95104 25.697 5.51607C25.6737 5.49322 25.6484 5.47057 25.6231 5.44419C25.5993 5.43532 25.577 5.42773 25.5478 5.42773C25.5299 5.42773 25.5101 5.43374 25.4947 5.43666C25.4566 5.45213 25.4258 5.47691 25.4055 5.50561C24.6382 6.09055 21.1176 8.47402 17.9818 5.54879L17.9362 5.50462C17.9035 5.47597 17.8583 5.45212 17.8083 5.45212C17.7627 5.45212 17.7171 5.47597 17.6863 5.50462L17.6378 5.54879C14.5029 8.47402 10.9789 6.09055 10.213 5.50561C10.1932 5.47691 10.1635 5.45213 10.1263 5.43666C10.1079 5.43374 10.0896 5.42773 10.0698 5.42773C10.045 5.42773 10.0197 5.43532 9.9964 5.44419C9.9731 5.47057 9.94583 5.49322 9.92055 5.51607C7.34683 7.95104 4.51286 6.86182 3.59778 6.40443C3.56555 6.38797 3.53482 6.3731 3.50756 6.35719Z" fill="#0A97D9"/>
</svg>
