<svg width="36" height="36" viewBox="0 0 36 36" fill="none" xmlns="http://www.w3.org/2000/svg">
<path d="M22.867 16.9954C24.239 15.7229 25.0999 13.9058 25.0999 11.8916C25.0999 11.59 25.0779 11.2935 25.0415 11.001C27.8285 11.2993 30.0078 13.6651 30.0078 16.5321C30.0078 18.1602 29.3001 19.6228 28.18 20.641C27.1315 18.6769 25.1702 17.2726 22.867 16.9954ZM27.595 23.9086C27.595 26.9752 25.0999 29.4703 22.0323 29.4703C21.0344 29.4703 20.1002 29.2028 19.2888 28.7411C20.4726 27.4923 21.2018 25.8069 21.2018 23.9552C21.2018 23.4995 21.1559 23.0538 21.0725 22.6224C22.0728 23.1784 23.222 23.4958 24.4457 23.4958C25.5336 23.4958 26.5637 23.2451 27.4818 22.7972C27.5562 23.1574 27.595 23.5286 27.595 23.9086ZM8.67517 23.9552C8.67517 23.5596 8.71626 23.1749 8.79609 22.8025C9.71298 23.2468 10.7401 23.4958 11.8244 23.4958C13.0439 23.4958 14.1896 23.1802 15.1875 22.628C15.1101 23.0425 15.0666 23.4716 15.0666 23.9086C15.0666 25.7902 15.819 27.4989 17.0356 28.753C16.2116 29.2354 15.2578 29.5168 14.2372 29.5168C11.169 29.5168 8.67517 27.0218 8.67517 23.9552ZM6.2623 16.5321C6.2623 13.6651 8.43984 11.2993 11.228 11.001C11.1911 11.2935 11.169 11.59 11.169 11.8916C11.169 13.9272 12.0484 15.7622 13.4449 17.0359C11.1351 17.2993 9.16427 18.6957 8.105 20.6552C6.97602 19.6377 6.2623 18.1679 6.2623 16.5321ZM18.1342 6.32885C20.4136 6.32885 22.3743 7.70745 23.2333 9.67349C20.9706 10.0733 19.0814 11.567 18.1342 13.5877C17.1887 11.5662 15.2989 10.0727 13.0356 9.67349C13.8947 7.70745 15.8554 6.32885 18.1342 6.32885ZM19.4592 18.9824C20.2295 18.5779 21.1029 18.3466 22.0323 18.3466C24.2193 18.3466 26.1103 19.6175 27.0189 21.4578C26.2479 21.8623 25.3722 22.0941 24.4457 22.0941C22.2581 22.0941 20.3671 20.822 19.4592 18.9824ZM16.7919 19.0194C15.8774 20.8393 13.9972 22.0941 11.8244 22.0941C10.9033 22.0941 10.0353 21.8653 9.26913 21.4667C10.1848 19.6466 12.0651 18.3924 14.2372 18.3924C15.1595 18.3924 16.0263 18.6212 16.7919 19.0194ZM12.6448 11.0361C15.3233 11.4345 17.3871 13.7438 17.3871 16.5321C17.3871 16.8227 17.3573 17.1069 17.3144 17.3864C14.6352 16.9877 12.5721 14.6791 12.5721 11.8916C12.5721 11.5995 12.6013 11.3154 12.6448 11.0361ZM18.1598 27.8933C17.119 26.8821 16.4696 25.4702 16.4696 23.9086C16.4696 22.3706 17.0975 20.9775 18.1092 19.9696C19.15 20.9806 19.7993 22.3925 19.7993 23.9552C19.7993 25.4923 19.172 26.8859 18.1598 27.8933ZM23.6969 11.8916C23.6969 14.6791 21.6337 16.9877 18.9551 17.3864C18.9116 17.1069 18.8825 16.8227 18.8825 16.5321C18.8825 13.7438 20.9456 11.4352 23.6248 11.0365C23.6677 11.3154 23.6969 11.5995 23.6969 11.8916ZM31.4103 16.5321C31.4103 12.7768 28.4219 9.70798 24.7007 9.57227C23.7433 6.86849 21.1619 4.92647 18.1342 4.92647C15.1077 4.92647 12.5262 6.86849 11.567 9.57227C7.84526 9.70798 4.85986 12.7768 4.85986 16.5321C4.85986 18.7601 5.91319 20.7464 7.54678 22.022C7.36984 22.6361 7.27153 23.2845 7.27153 23.9552C7.27153 27.7944 10.3969 30.9192 14.2372 30.9192C15.6951 30.9192 17.0481 30.4682 18.1687 29.6997C19.2751 30.4395 20.603 30.8722 22.0323 30.8722C25.8726 30.8722 28.9968 27.7486 28.9968 23.9086C28.9968 23.2517 28.9039 22.617 28.7335 22.0143C30.3599 20.7376 31.4103 18.7555 31.4103 16.5321Z" fill="#19486A"/>
<path d="M23.0084 16.9295C24.3774 15.6588 25.2377 13.8445 25.2377 11.8333C25.2377 11.5324 25.2163 11.2357 25.1788 10.9444C27.9622 11.2422 30.1379 13.6039 30.1379 16.4659C30.1379 18.0919 29.432 19.552 28.3137 20.569C27.2663 18.6078 25.308 17.2064 23.0084 16.9295ZM27.7286 23.832C27.7286 26.8932 25.2377 29.3852 22.1743 29.3852C21.1776 29.3852 20.2452 29.1183 19.4356 28.6565C20.6176 27.4097 21.3462 25.7273 21.3462 23.8785C21.3462 23.4229 21.2997 22.9784 21.2163 22.5476C22.2148 23.1029 23.3623 23.4199 24.5842 23.4199C25.6703 23.4199 26.6997 23.169 27.616 22.7222C27.6893 23.0808 27.7286 23.4527 27.7286 23.832ZM8.83743 23.8785C8.83743 23.4836 8.88032 23.0987 8.95955 22.7275C9.87465 23.1708 10.8994 23.4199 11.9831 23.4199C13.2008 23.4199 14.3441 23.1048 15.3397 22.553C15.2634 22.9677 15.2199 23.3947 15.2199 23.832C15.2199 25.7105 15.9712 27.4162 17.1859 28.6685C16.3638 29.1504 15.4111 29.431 14.3924 29.431C11.3283 29.431 8.83743 26.9403 8.83743 23.8785ZM6.42873 16.4659C6.42873 13.6039 8.60328 11.2429 11.3873 10.9444C11.3498 11.2357 11.3283 11.5324 11.3283 11.8333C11.3283 13.8662 12.2065 15.6975 13.6012 16.9707C11.2938 17.2327 9.32654 18.627 8.26846 20.5839C7.14305 19.5669 6.42873 18.1001 6.42873 16.4659ZM18.2827 6.27968C20.5586 6.27968 22.5157 7.65531 23.3742 9.61878C21.1144 10.0174 19.2282 11.5087 18.2827 13.5271C17.3379 11.508 15.4516 10.0167 13.1919 9.61878C14.0492 7.65531 16.0081 6.27968 18.2827 6.27968ZM19.6059 18.9128C20.3751 18.5094 21.2473 18.2783 22.1743 18.2783C24.3578 18.2783 26.2452 19.5478 27.1537 21.3852C26.384 21.7885 25.5106 22.0198 24.5842 22.0198C22.3995 22.0198 20.5115 20.75 19.6059 18.9128ZM16.9423 18.9504C16.0295 20.7675 14.1517 22.0198 11.9831 22.0198C11.0632 22.0198 10.1958 21.791 9.43082 21.3935C10.3453 19.5764 12.2226 18.3242 14.3924 18.3242C15.3122 18.3242 16.1779 18.5525 16.9423 18.9504ZM12.8017 10.979C15.4755 11.3769 17.5362 13.6821 17.5362 16.4659C17.5362 16.7568 17.5071 17.041 17.4636 17.3191C14.7892 16.9211 12.7296 14.6167 12.7296 11.8333C12.7296 11.542 12.7582 11.2578 12.8017 10.979ZM18.309 27.8099C17.2693 26.8001 16.6199 25.3905 16.6199 23.832C16.6199 22.2967 17.2485 20.9051 18.2571 19.8988C19.2967 20.9081 19.9455 22.3177 19.9455 23.8785C19.9455 25.4126 19.3188 26.8039 18.309 27.8099ZM23.8365 11.8333C23.8365 14.6167 21.7763 16.9211 19.1019 17.3191C19.059 17.041 19.0304 16.7568 19.0304 16.4659C19.0304 13.6821 21.09 11.3774 23.7644 10.979C23.8073 11.2578 23.8365 11.542 23.8365 11.8333ZM31.5374 16.4659C31.5374 12.7163 28.555 9.65274 24.8398 9.5175C23.8836 6.81867 21.3057 4.87891 18.2827 4.87891C15.2604 4.87891 12.6831 6.81867 11.7257 9.5175C8.01051 9.65345 5.02868 12.7168 5.02868 16.4659C5.02868 18.6905 6.08023 20.674 7.71263 21.9484C7.5345 22.5614 7.43796 23.209 7.43796 23.8785C7.43796 27.711 10.5568 30.8311 14.3924 30.8311C15.8466 30.8311 17.199 30.3808 18.3173 29.6135C19.4213 30.3526 20.7486 30.7853 22.1743 30.7853C26.0093 30.7853 29.1281 27.6652 29.1281 23.832C29.1281 23.1762 29.0364 22.5416 28.8654 21.9405C30.49 20.6656 31.5374 18.6865 31.5374 16.4659Z" fill="#19486A"/>
</svg>
