<svg width="36" height="36" viewBox="0 0 36 36" fill="none" xmlns="http://www.w3.org/2000/svg">
<path d="M2.6943 23.073H9.70313C9.79831 23.073 9.87513 22.9957 9.87513 22.901C9.87513 22.8569 9.8573 22.8177 9.83004 22.7865L9.82012 22.7771L6.3328 18.2641L6.2991 18.2274C6.26787 18.1927 6.22275 18.1714 6.17268 18.1714C6.12856 18.1714 6.09041 18.1898 6.05967 18.215L6.03886 18.2393L6.00514 18.276L2.60408 22.7404L2.55154 22.8043C2.5327 22.8316 2.52227 22.8653 2.52227 22.901C2.52227 22.9957 2.59912 23.073 2.6943 23.073Z" fill="#FD9D24"/>
<path d="M9.68204 23.7095H2.65882C2.56414 23.7095 2.4873 23.7868 2.4873 23.881V29.3769C2.4873 29.4721 2.56414 29.5494 2.65882 29.5494H4.92025V26.0924C4.92025 25.9962 4.9966 25.9204 5.09227 25.9204H7.1901C7.28478 25.9204 7.36213 25.9962 7.36213 26.0924V29.5494H9.68204C9.77672 29.5494 9.85406 29.4721 9.85406 29.3769V23.881C9.85406 23.7868 9.77672 23.7095 9.68204 23.7095Z" fill="#FD9D24"/>
<path d="M33.325 24.5206C33.325 24.6128 33.2492 24.6862 33.1545 24.6862H31.0784C30.9842 24.6862 30.9084 24.6128 30.9084 24.5206V23.2581C30.9084 23.1673 30.9842 23.093 31.0784 23.093H33.1545C33.2492 23.093 33.325 23.1673 33.325 23.2581V24.5206ZM33.325 26.8529C33.325 26.9451 33.2492 27.019 33.1545 27.019H31.0784C30.9842 27.019 30.9084 26.9451 30.9084 26.8529V25.5909C30.9084 25.4997 30.9842 25.4253 31.0784 25.4253H33.1545C33.2492 25.4253 33.325 25.4997 33.325 25.5909V26.8529ZM30.151 24.5206C30.151 24.6128 30.0756 24.6862 29.9814 24.6862H27.9049C27.8102 24.6862 27.7334 24.6128 27.7334 24.5206V23.2581C27.7334 23.1673 27.8102 23.093 27.9049 23.093H29.9814C30.0756 23.093 30.151 23.1673 30.151 23.2581V24.5206ZM30.151 26.8529C30.151 26.9451 30.0756 27.019 29.9814 27.019H27.9049C27.8102 27.019 27.7334 26.9451 27.7334 26.8529V25.5909C27.7334 25.4997 27.8102 25.4253 27.9049 25.4253H29.9814C30.0756 25.4253 30.151 25.4997 30.151 25.5909V26.8529ZM33.9545 22.2706H27.0032C26.9095 22.2706 26.8337 22.344 26.8337 22.4357V29.4549C26.8337 29.5456 26.9095 29.62 27.0032 29.62H33.9545C34.0487 29.62 34.1246 29.5456 34.1246 29.4549V22.4357C34.1246 22.344 34.0487 22.2706 33.9545 22.2706Z" fill="#FD9D24"/>
<path d="M16.8043 10.9663C16.8043 11.0154 16.7637 11.0556 16.7146 11.0556H15.1571C15.108 11.0556 15.0679 11.0154 15.0679 10.9663V9.23037C15.0679 9.1808 15.108 9.14114 15.1571 9.14114H16.7146C16.7637 9.14114 16.8043 9.1808 16.8043 9.23037V10.9663ZM16.8043 14.9518C16.8043 15.0014 16.7637 15.0416 16.7146 15.0416H15.1571C15.108 15.0416 15.0679 15.0014 15.0679 14.9518V13.2159C15.0679 13.1668 15.108 13.1276 15.1571 13.1276H16.7146C16.7637 13.1276 16.8043 13.1668 16.8043 13.2159V14.9518ZM16.8043 18.9383C16.8043 18.9879 16.7637 19.0281 16.7146 19.0281H15.1571C15.108 19.0281 15.0679 18.9879 15.0679 18.9383V17.2024C15.0679 17.1533 15.108 17.1131 15.1571 17.1131H16.7146C16.7637 17.1131 16.8043 17.1533 16.8043 17.2024V18.9383ZM16.8043 22.9238C16.8043 22.9744 16.7637 23.0136 16.7146 23.0136H15.1571C15.108 23.0136 15.0679 22.9744 15.0679 22.9238V21.1889C15.0679 21.1383 15.108 21.0996 15.1571 21.0996H16.7146C16.7637 21.0996 16.8043 21.1383 16.8043 21.1889V22.9238ZM16.8043 26.9098C16.8043 26.9599 16.7637 26.9996 16.7146 26.9996H15.1571C15.108 26.9996 15.0679 26.9599 15.0679 26.9098V25.1749C15.0679 25.1258 15.108 25.0861 15.1571 25.0861H16.7146C16.7637 25.0861 16.8043 25.1258 16.8043 25.1749V26.9098ZM13.7493 10.9663C13.7493 11.0154 13.7091 11.0556 13.6606 11.0556H12.1025C12.054 11.0556 12.0133 11.0154 12.0133 10.9663V9.23037C12.0133 9.1808 12.054 9.14114 12.1025 9.14114H13.6606C13.7091 9.14114 13.7493 9.1808 13.7493 9.23037V10.9663ZM13.7493 14.9518C13.7493 15.0014 13.7091 15.0416 13.6606 15.0416H12.1025C12.054 15.0416 12.0133 15.0014 12.0133 14.9518V13.2159C12.0133 13.1668 12.054 13.1276 12.1025 13.1276H13.6606C13.7091 13.1276 13.7493 13.1668 13.7493 13.2159V14.9518ZM13.7493 18.9383C13.7493 18.9879 13.7091 19.0281 13.6606 19.0281H12.1025C12.054 19.0281 12.0133 18.9879 12.0133 18.9383V17.2024C12.0133 17.1533 12.054 17.1131 12.1025 17.1131H13.6606C13.7091 17.1131 13.7493 17.1533 13.7493 17.2024V18.9383ZM13.7493 22.9238C13.7493 22.9744 13.7091 23.0136 13.6606 23.0136H12.1025C12.054 23.0136 12.0133 22.9744 12.0133 22.9238V21.1889C12.0133 21.1383 12.054 21.0996 12.1025 21.0996H13.6606C13.7091 21.0996 13.7493 21.1383 13.7493 21.1889V22.9238ZM13.7493 26.9098C13.7493 26.9599 13.7091 26.9996 13.6606 26.9996H12.1025C12.054 26.9996 12.0133 26.9599 12.0133 26.9098V25.1749C12.0133 25.1258 12.054 25.0861 12.1025 25.0861H13.6606C13.7091 25.0861 13.7493 25.1258 13.7493 25.1749V26.9098ZM17.7962 5.97852H10.9941C10.9024 5.97852 10.8281 6.05238 10.8281 6.14557V29.3928C10.8281 29.4846 10.9024 29.5589 10.9941 29.5589H17.7962C17.887 29.5589 17.9633 29.4846 17.9633 29.3928V6.14557C17.9633 6.05238 17.887 5.97852 17.7962 5.97852Z" fill="#FD9D24"/>
<path d="M34.1158 21.5647C34.1158 21.6425 34.0539 21.705 33.9765 21.705H26.9806C26.9033 21.705 26.8408 21.6425 26.8408 21.5647V20.1658C26.8408 20.0884 26.9033 20.026 26.9806 20.026H33.9765C34.0539 20.026 34.1158 20.0884 34.1158 20.1658V21.5647Z" fill="#FD9D24"/>
<path d="M25.2392 17.4715C25.2392 17.5637 25.1639 17.6381 25.0726 17.6381H23.0452C22.9535 17.6381 22.8781 17.5637 22.8781 17.4715V16.2025C22.8781 16.1098 22.9535 16.0354 23.0452 16.0354H25.0726C25.1639 16.0354 25.2392 16.1098 25.2392 16.2025V17.4715ZM25.2392 19.8167C25.2392 19.9084 25.1639 19.9828 25.0726 19.9828H23.0452C22.9535 19.9828 22.8781 19.9084 22.8781 19.8167V18.5477C22.8781 18.456 22.9535 18.3816 23.0452 18.3816H25.0726C25.1639 18.3816 25.2392 18.456 25.2392 18.5477V19.8167ZM25.2392 22.1624C25.2392 22.2531 25.1639 22.328 25.0726 22.328H23.0452C22.9535 22.328 22.8781 22.2531 22.8781 22.1624V20.8924C22.8781 20.8002 22.9535 20.7263 23.0452 20.7263H25.0726C25.1639 20.7263 25.2392 20.8002 25.2392 20.8924V22.1624ZM25.2392 24.5071C25.2392 24.5993 25.1639 24.6737 25.0726 24.6737H23.0452C22.9535 24.6737 22.8781 24.5993 22.8781 24.5071V23.2381C22.8781 23.1454 22.9535 23.0715 23.0452 23.0715H25.0726C25.1639 23.0715 25.2392 23.1454 25.2392 23.2381V24.5071ZM25.2392 26.8513C25.2392 26.944 25.1639 27.0179 25.0726 27.0179H23.0452C22.9535 27.0179 22.8781 26.944 22.8781 26.8513V25.5833C22.8781 25.4906 22.9535 25.4172 23.0452 25.4172H25.0726C25.1639 25.4172 25.2392 25.4906 25.2392 25.5833V26.8513ZM22.146 19.8197C22.146 19.9114 22.0706 19.9857 21.9794 19.9857H19.9525C19.8598 19.9857 19.7849 19.9114 19.7849 19.8197V19.4672C19.7859 19.4449 19.7904 19.4246 19.7978 19.4053C19.8008 19.3988 19.8013 19.3959 19.8082 19.3859C19.8117 19.378 19.8176 19.3711 19.8226 19.3636C19.828 19.3562 19.8355 19.3463 19.8409 19.3364C20.1007 18.9656 21.2696 17.5251 21.7613 16.9228L21.8104 16.8638C21.8456 16.8206 21.9001 16.7929 21.9606 16.7929C22.0528 16.7929 22.1276 16.8608 22.146 16.949V19.8197ZM22.14 22.1624C22.14 22.2531 22.0662 22.328 21.974 22.328H19.946C19.8538 22.328 19.7795 22.2531 19.7795 22.1624V20.8924C19.7795 20.8002 19.8538 20.7263 19.946 20.7263H21.974C22.0662 20.7263 22.14 20.8002 22.14 20.8924V22.1624ZM22.14 24.5071C22.14 24.5993 22.0662 24.6737 21.974 24.6737H19.946C19.8538 24.6737 19.7795 24.5993 19.7795 24.5071V23.2381C19.7795 23.1454 19.8538 23.0715 19.946 23.0715H21.974C22.0662 23.0715 22.14 23.1454 22.14 23.2381V24.5071ZM22.14 26.8513C22.14 26.944 22.0662 27.0179 21.974 27.0179H19.946C19.8538 27.0179 19.7795 26.944 19.7795 26.8513V25.5833C19.7795 25.4906 19.8538 25.4172 19.946 25.4172H21.974C22.0662 25.4172 22.14 25.4906 22.14 25.5833V26.8513ZM23.1979 14.9741L23.2455 14.9141C23.703 14.3277 24.4738 13.3784 24.8496 12.9169L24.8987 12.8589C24.9344 12.8153 24.9874 12.7881 25.0479 12.7881C25.1416 12.7881 25.2159 12.855 25.2333 12.9437V15.0896C25.2333 15.1922 25.151 15.276 25.0489 15.2805C25.0459 15.2805 25.0439 15.282 25.0409 15.282C25.0379 15.282 25.0355 15.2805 25.032 15.2805H23.362C23.359 15.2805 23.356 15.282 23.3526 15.282C23.3506 15.282 23.3481 15.2805 23.3446 15.2805C23.2425 15.276 23.1602 15.1922 23.1602 15.0896C23.1602 15.046 23.1741 15.0063 23.1979 14.9741ZM26.0125 10.3685C25.9897 10.2941 25.9238 10.2386 25.842 10.2386C25.8048 10.2386 25.7726 10.252 25.7443 10.2708C25.7399 10.2733 25.7364 10.2758 25.732 10.2798L25.6744 10.3516L18.9888 18.8327L18.9581 18.8739C18.9239 18.9076 18.9011 18.9542 18.9001 19.0057V29.428C18.9001 29.5192 18.9744 29.5936 19.0671 29.5936H25.8623C25.9545 29.5936 26.0284 29.5192 26.0284 29.428V10.4379C26.0284 10.4131 26.0224 10.3893 26.0125 10.3685Z" fill="#FD9D24"/>
</svg>
