<svg width="36" height="36" viewBox="0 0 36 36" fill="none" xmlns="http://www.w3.org/2000/svg">
<path d="M24.8561 19.1572C24.6772 19.1084 23.9297 18.0714 24.523 17.3909C24.6213 17.2786 24.3248 16.9487 24.4059 16.9428C24.7297 16.9178 24.9016 17.1192 24.9867 17.409C24.9929 17.5368 24.9977 17.6657 24.9977 17.7954C24.9969 18.2626 24.9473 18.7169 24.8561 19.1572ZM23.0243 22.5224C22.9577 22.503 22.8892 22.482 22.8146 22.4446C22.4513 22.2587 22.4942 22.5549 22.3151 22.4895C22.1353 22.4225 22.5179 22.0073 21.9795 22.3582C21.4441 22.7076 21.5888 22.303 21.3559 21.7091C21.1208 21.1146 21.6264 20.4373 22.0484 20.2846C22.6282 20.0756 22.9879 20.034 23.2596 19.9673C24.0611 19.7683 24.2315 19.2927 24.3764 19.5827C24.4039 19.6366 24.4301 19.6882 24.4543 19.737C24.5008 19.8226 24.5542 19.9986 24.5568 20.1707C24.2151 21.0622 23.6895 21.8625 23.0243 22.5224ZM18.3171 24.4576C17.6655 24.4569 17.0369 24.3613 16.4425 24.1864C16.3572 24.1166 16.3084 24 16.362 23.8605C16.5694 23.3223 17.1844 23.1121 17.6696 23.0661C18.7513 22.9626 20.1723 23.772 20.3981 23.6419C20.6255 23.5118 21.0835 22.9182 21.7541 22.9444C22.2123 22.9622 22.2086 23.0392 22.3621 23.0971C21.2393 23.9516 19.8378 24.4597 18.3171 24.4576ZM17.416 20.1084C17.3241 20.2589 17.0719 21.3799 16.9037 21.2486C16.7349 21.1181 16.9736 19.9483 17.0224 19.859C17.2868 19.3761 17.8564 19.401 17.416 20.1084ZM20.142 18.788C20.0104 18.905 19.673 18.8618 19.5043 18.7296C19.3372 18.5987 19.6115 18.3831 19.7117 18.3752C19.9362 18.3549 20.273 18.6691 20.142 18.788ZM23.086 18.803C23.0144 18.7764 22.9506 18.7083 22.8966 18.5445C22.8423 18.3806 22.9803 18.2871 23.1148 18.3534C23.2517 18.4228 23.4288 18.6277 23.4288 18.7365C23.4285 18.8463 23.1597 18.832 23.086 18.803ZM23.3693 19.0089C23.5938 18.991 23.9297 19.3023 23.7986 19.4213C23.6667 19.5395 23.3304 19.4955 23.162 19.3631C22.9947 19.2322 23.2686 19.0163 23.3693 19.0089ZM16.21 21.6583C16.0797 22.1688 15.9281 22.3523 15.799 22.5129C15.67 22.6754 15.1916 22.8816 14.8892 22.8599C14.5855 22.8365 14.5446 22.0267 14.5451 21.6103C14.5454 21.4667 14.341 21.8927 14.236 21.0266C14.1689 20.4706 13.8117 21.0828 13.7874 20.7132C13.7624 20.3441 13.5844 20.4171 13.3976 20.1862C13.2122 19.9551 12.9795 20.2081 12.7191 20.3247C12.4603 20.4389 12.5669 20.4996 12.199 20.3833C12.1898 20.381 12.1848 20.3778 12.1754 20.3746C11.8391 19.5759 11.654 18.6979 11.6552 17.7776C11.6555 17.5523 11.6679 17.3307 11.6891 17.1116C11.7017 17.0899 11.7146 17.0681 11.73 17.0495C12.0834 16.6331 12.0759 16.535 12.0759 16.535L12.4662 16.4006C12.4662 16.4006 13.0897 16.4974 13.5592 16.6751C13.9452 16.8202 14.5537 17.149 14.9083 17.0053C15.1644 16.8998 15.3647 16.7607 15.3408 16.5475C15.3128 16.2798 15.1021 16.2158 14.8466 16.3959C14.7523 16.4621 14.5525 15.9923 14.3954 16.0159C14.2385 16.039 14.5893 16.5676 14.4557 16.5902C14.3221 16.6123 14.0543 16.0386 14.0085 15.9462C13.9635 15.8538 13.7566 15.6234 13.5699 15.7986C13.1759 16.1715 12.5371 16.1484 12.4085 16.244C12.0175 16.5355 11.9153 16.1473 11.9241 15.9105C11.9399 15.8566 11.9561 15.8022 11.9737 15.7487C12.1014 15.6082 12.5588 15.5619 12.7159 15.6674C12.888 15.7828 13.0121 15.6381 13.0796 15.5683C13.1482 15.5001 13.1241 15.3891 13.0813 15.2966C13.0379 15.2045 13.1676 15.1368 13.2568 15.1125C13.347 15.0891 13.6447 14.8809 13.7632 14.8125C13.8831 14.7438 14.5001 14.6692 14.7762 14.8084C15.0521 14.9472 15.3059 14.8341 15.4423 14.6744C15.6128 14.4722 15.8302 14.3186 15.9265 14.2715C16.0233 14.2271 15.6889 13.9142 15.413 14.2541C15.1371 14.5931 14.9967 14.6241 14.8669 14.6237C14.7373 14.6237 13.968 14.4309 13.8732 14.187C13.7795 13.9436 14.1147 13.7619 14.399 13.6246C14.6834 13.4894 15.461 13.4927 15.6598 13.4479C16.0642 13.3598 16.5809 13.1576 16.8411 13.3353C17.1 13.5097 15.7534 13.8143 16.1956 14.0537C16.353 14.1402 17.0651 13.6454 17.3089 13.5188C17.8832 13.2237 16.7534 13.1246 16.9009 12.5234C17.0674 11.8433 15.5153 12.1047 14.7418 12.1614C15.7801 11.4979 17.0129 11.1133 18.3354 11.1148C21.4825 11.1189 24.1153 13.3031 24.8144 16.2353C24.8188 16.3805 24.7963 16.4847 24.7816 16.5442C24.7209 16.7841 24.2644 16.9908 24.0003 16.6029C23.9328 16.505 23.647 16.2348 23.6562 16.6969C23.6649 17.1596 24.1049 17.2072 23.6782 17.484C23.252 17.7608 23.1735 17.6935 22.9763 17.7636C22.7802 17.833 22.5889 18.3094 22.6353 18.5636C22.6826 18.8181 23.2897 19.5141 22.8384 19.4856C22.7329 19.4772 21.9365 18.9319 21.8053 18.5817C21.6673 18.2133 21.5163 17.8521 21.4088 17.5737C21.3 17.2969 21.0192 17.2259 20.7806 17.3885C20.5435 17.5506 20.8464 17.7125 20.6756 18.0603C20.5049 18.4065 20.3818 18.7162 20.1321 18.4299C19.4822 17.6827 18.5352 18.0496 18.388 17.2191C18.3087 16.7687 17.9208 16.8116 17.5972 16.5561C17.272 16.3022 17.091 16.1643 17.0361 16.3475C16.9874 16.5089 18.0542 17.3564 18.1299 17.5737C18.2424 17.8958 17.8091 18.1797 17.4923 18.255C17.1765 18.3307 17.0378 18.0773 16.7272 17.7529C16.4167 17.4289 16.2811 17.1977 16.2593 17.4515C16.2276 17.8188 16.5531 18.3582 16.8691 18.5603C17.139 18.7312 17.4414 18.8094 17.3539 19.0865C17.2654 19.3641 17.3518 19.2072 17.0493 19.5062C16.7458 19.8059 16.6879 19.9031 16.7094 20.3174C16.7308 20.7343 16.6221 20.7585 16.5567 21.1047C16.4912 21.4514 16.3414 21.1511 16.21 21.6583ZM12.6367 14.3024C12.6518 14.2845 12.6655 14.2695 12.6711 14.2624C12.7923 14.1249 13.0317 14.0959 13.1975 14.0705C13.3636 14.042 13.5849 14.1259 13.6114 14.2365C13.6396 14.3465 13.1945 14.5471 13.1134 14.6221C12.8826 14.8341 12.5216 15.2657 12.3106 15.312C12.2412 15.3271 12.1848 15.3168 12.1382 15.2938C12.2773 14.9485 12.4434 14.6165 12.6367 14.3024ZM12.9795 13.6231C13.0661 13.4957 13.3529 13.135 13.3882 13.0893C13.4619 12.9946 13.6082 12.9756 13.711 12.9573C13.8128 12.9375 13.9487 12.9954 13.9644 13.0715C13.982 13.1477 13.9248 13.4439 13.8745 13.495C13.7341 13.6409 13.3679 13.846 13.1665 13.813C13.0105 13.7893 12.9499 13.6688 12.9795 13.6231ZM34.1798 17.5931C33.0432 15.9941 27.9013 9.61021 18.3262 9.5972C8.74989 9.58451 3.59202 15.9549 2.44927 17.5503C2.40049 17.6185 2.35929 17.6772 2.32471 17.7272C2.35881 17.7786 2.40049 17.8381 2.44879 17.9068C3.58706 19.5054 8.72773 25.8893 18.3041 25.9023C27.8792 25.9158 33.0387 19.545 34.1793 17.9504C34.2293 17.8813 34.2706 17.8223 34.3031 17.7712C34.2706 17.7212 34.2297 17.6617 34.1798 17.5931Z" fill="#3F7E44"/>
</svg>
