<svg width="36" height="36" viewBox="0 0 36 36" fill="none" xmlns="http://www.w3.org/2000/svg">
<path d="M22.9825 19.3873H13.0777C13.0182 19.3873 12.9696 19.4409 12.9696 19.5078V22.4845C12.9696 22.5514 13.0182 22.6055 13.0777 22.6055H22.9825C23.0434 22.6055 23.0905 22.5514 23.0905 22.4845V19.5078C23.0905 19.4409 23.0434 19.3873 22.9825 19.3873Z" fill="#DD1367"/>
<path d="M22.9825 13.0531H13.0777C13.0182 13.0531 12.9696 13.1076 12.9696 13.1735V16.1503C12.9696 16.2177 13.0182 16.2712 13.0777 16.2712H22.9825C23.0434 16.2712 23.0905 16.2177 23.0905 16.1503V13.1735C23.0905 13.1076 23.0434 13.0531 22.9825 13.0531Z" fill="#DD1367"/>
<path d="M22.8427 8.55353L18.0888 3.79918C18.0561 3.76746 18.0051 3.76746 17.9723 3.79918L13.218 8.55353C13.1664 8.60509 13.2031 8.69431 13.2765 8.69431H22.7847C22.858 8.69431 22.8942 8.60509 22.8427 8.55353Z" fill="#DD1367"/>
<path d="M27.3061 22.6415L32.0604 17.8867C32.0927 17.8549 32.0927 17.8029 32.0604 17.7712L27.3061 13.0168C27.2545 12.9653 27.1653 13.0019 27.1653 13.0743V22.5835C27.1653 22.6559 27.2545 22.6931 27.3061 22.6415Z" fill="#DD1367"/>
<path d="M13.2179 27.1046L17.9723 31.8594C18.005 31.8906 18.0565 31.8906 18.0888 31.8594L22.8426 27.1046C22.8947 27.053 22.858 26.9648 22.7846 26.9648H13.2764C13.2036 26.9648 13.1669 27.053 13.2179 27.1046Z" fill="#DD1367"/>
<path d="M8.7547 13.0169L4.00084 17.7712C3.96912 17.8034 3.96912 17.855 4.00084 17.8872L8.7547 22.6415C8.80675 22.6931 8.89597 22.6564 8.89597 22.5835V13.0749C8.89597 13.002 8.80675 12.9653 8.7547 13.0169Z" fill="#DD1367"/>
</svg>
