<svg width="36" height="36" viewBox="0 0 36 36" fill="none" xmlns="http://www.w3.org/2000/svg">
<path d="M12.9965 20.163C13.0684 20.163 13.1266 20.2214 13.1266 20.2932V24.6038C13.1266 24.6772 13.0684 24.7347 12.9965 24.7347H11.2522C11.1791 24.7347 11.1209 24.6772 11.1209 24.6038V20.2932C11.1209 20.2214 11.1791 20.163 11.2522 20.163H12.9965Z" fill="#56C02B"/>
<path d="M32.1521 26.5858H3.40712C3.33586 26.5858 3.27637 26.6472 3.27637 26.7208V28.4768C3.27637 28.5495 3.33586 28.6063 3.40712 28.6063H32.1521C32.2227 28.6063 32.284 28.5495 32.284 28.4768V26.7208C32.284 26.6472 32.2227 26.5858 32.1521 26.5858Z" fill="#56C02B"/>
<path d="M32.1521 30.0778H3.40712C3.33586 30.0778 3.27637 30.1357 3.27637 30.2068V31.9691C3.27637 32.0396 3.33586 32.0986 3.40712 32.0986H32.1521C32.2227 32.0986 32.284 32.0396 32.284 31.9691V30.2068C32.284 30.1357 32.2227 30.0778 32.1521 30.0778Z" fill="#56C02B"/>
<path d="M26.6826 15.3914C26.3232 15.1109 25.3641 14.4552 24.196 14.4552C23.3601 14.4552 22.5825 14.7837 21.8873 15.4362C21.8377 15.4819 21.8104 15.5471 21.8104 15.6165V15.7732C21.8104 15.8501 21.8358 15.922 21.8922 15.9685C21.9548 16.0161 22.0205 16.0336 22.0948 16.0161C22.1122 16.0137 22.132 16.0086 22.1488 16.0026C22.2014 15.984 22.2516 15.9522 22.2931 15.9108C22.4431 15.8097 22.8545 15.6715 23.4444 15.6715C24.0529 15.6715 25.2488 15.8346 26.405 16.9134L26.4317 16.9362C26.4967 17.0032 26.5866 17.0405 26.6826 17.0405C26.7731 17.0405 26.8667 17.0025 26.9249 16.9388L26.9485 16.9151C28.1115 15.8346 29.3062 15.6715 29.9153 15.6715C30.5083 15.6715 30.9178 15.8097 31.0684 15.9108C31.1106 15.9522 31.1608 15.9845 31.2283 16.0086C31.2537 16.0161 31.3262 16.0316 31.3968 16.0137C31.5028 15.984 31.5778 15.8879 31.5778 15.7763V15.6381C31.5778 15.5725 31.5486 15.5062 31.5003 15.4609C30.7976 14.7917 30.0126 14.454 29.1637 14.454C28.0056 14.454 27.0513 15.0997 26.6826 15.3914Z" fill="#56C02B"/>
<path d="M24.8979 3.93494C24.8378 3.96325 24.7925 4.01914 24.7727 4.08668L24.7436 4.18205C24.7225 4.25758 24.7361 4.33695 24.7808 4.39817C24.826 4.45654 24.8892 4.49112 24.9586 4.49428C24.9722 4.4967 24.9852 4.49986 24.9951 4.4967C25.0453 4.49428 25.0893 4.48437 25.1346 4.46088C25.16 4.45531 25.2133 4.44105 25.3081 4.44105C25.4363 4.44105 26.5963 4.48071 27.3615 5.78244L27.3715 5.8011C27.413 5.87688 27.478 5.92886 27.5555 5.94925C27.5784 5.956 27.6205 5.96276 27.6466 5.96276C27.6999 5.96276 27.7544 5.94925 27.7928 5.92694L27.8108 5.91777C28.2309 5.70765 28.664 5.60089 29.0934 5.60089C29.8196 5.60089 30.293 5.8972 30.4046 6.02063C30.4269 6.06202 30.461 6.09858 30.5006 6.12758C30.5248 6.1414 30.5688 6.16296 30.5942 6.17164C30.6072 6.17554 30.6221 6.17721 30.6369 6.17845C30.6438 6.17963 30.653 6.17963 30.6623 6.17963C30.702 6.17963 30.7392 6.16972 30.7764 6.15181C30.8346 6.12157 30.8798 6.0676 30.8978 6.00439L30.922 5.91895C30.93 5.89788 30.9325 5.87421 30.9325 5.84949C30.9325 5.80493 30.9214 5.76088 30.8984 5.7263C30.3407 4.75713 29.5303 4.55457 28.949 4.55457C28.5165 4.55457 28.1373 4.6666 27.9143 4.74845C27.6515 4.39408 26.9854 3.66211 25.976 3.66211C25.621 3.66211 25.2585 3.75338 24.8979 3.93494Z" fill="#56C02B"/>
<path d="M18.825 8.35742L18.833 8.48643C18.8374 8.56822 18.8789 8.63743 18.9483 8.68031C19.0047 8.71637 19.0778 8.72796 19.141 8.71005C19.1559 8.70646 19.1713 8.70063 19.1831 8.69654C19.2333 8.67548 19.2748 8.64499 19.3071 8.60478C19.4297 8.51666 19.8226 8.35574 20.4038 8.35574C20.9621 8.35574 21.811 8.50508 22.676 9.21568L22.6971 9.23606C22.759 9.29003 22.8377 9.31978 22.9183 9.31978H22.94C23.0305 9.31302 23.1135 9.27014 23.1649 9.21208L23.1847 9.18959C24.1427 8.17586 25.1744 8.02536 25.7048 8.02536C26.0815 8.02536 26.3498 8.10349 26.4539 8.16161C26.4936 8.19575 26.5425 8.22308 26.6033 8.23975C26.6206 8.24415 26.6628 8.25165 26.7086 8.24657C26.7266 8.24465 26.7508 8.23733 26.7687 8.23225C26.871 8.19576 26.9397 8.09599 26.9323 7.98514L26.9255 7.87237C26.9211 7.80532 26.8902 7.74528 26.8387 7.70122C26.2674 7.22051 25.6503 6.97823 24.9997 6.97823C23.9897 6.97823 23.1829 7.57562 22.8489 7.86797C22.5428 7.65983 21.8011 7.23042 20.9305 7.23042C20.1665 7.23042 19.4806 7.54898 18.8907 8.17345C18.8454 8.22308 18.8219 8.29062 18.825 8.35742Z" fill="#56C02B"/>
<path d="M4.2782 10.665C4.2782 8.94358 5.67424 7.5489 7.39435 7.5489C7.46189 7.5489 7.52757 7.55448 7.59388 7.55857C7.75808 5.38017 9.57362 3.66236 11.7938 3.66236C14.123 3.66236 16.011 5.54983 16.011 7.87904C16.011 8.5384 15.8543 9.16045 15.5847 9.71571C17.6952 10.1829 19.274 12.0628 19.274 14.3126C19.274 16.9151 17.1648 19.025 14.5623 19.025C14.3727 19.025 8.27486 18.988 8.27486 18.988C6.43144 18.9873 4.93812 17.4946 4.93812 15.6519C4.93812 14.7669 5.28449 13.9658 5.84712 13.3677C4.91085 12.8306 4.2782 11.823 4.2782 10.665Z" fill="#56C02B"/>
</svg>
