<svg width="36" height="36" viewBox="0 0 36 36" fill="none" xmlns="http://www.w3.org/2000/svg">
<path d="M12.7382 29.039V29.793C12.7377 29.7979 12.7357 29.8038 12.7357 29.8102C12.7357 29.8161 12.7377 29.8225 12.7382 29.8284C12.746 30.0138 12.8972 30.1633 13.0851 30.1668C13.0876 30.1668 13.0891 30.1678 13.0915 30.1678C13.0945 30.1678 13.0979 30.1668 13.1003 30.1668H21.9231C21.926 30.1668 21.9285 30.1678 21.9314 30.1678C21.9334 30.1678 21.9363 30.1668 21.9388 30.1668C22.1321 30.1633 22.2857 30.0059 22.2872 29.8126L22.2882 29.8117L22.2872 29.8067V28.9544C27.2536 27.3224 30.9745 23.2876 31.7926 18.371C31.7951 18.3602 31.796 18.3514 31.7975 18.341C31.8005 18.3248 31.8029 18.3091 31.8029 18.2923C31.8029 18.0941 31.6434 17.9348 31.4456 17.9348H3.32505C3.12727 17.9348 2.96729 18.0941 2.96729 18.2923L2.98643 18.4527C3.84573 23.417 7.66919 27.4739 12.7382 29.039Z" fill="#DDA63A"/>
<path d="M22.2784 5.9059C22.1625 6.07117 19.4457 9.99177 22.3387 13.1613C23.6662 14.6162 23.5509 15.9 23.172 16.7666H25.028C25.4035 15.4868 25.2484 13.8809 23.7423 12.2312C21.6105 9.89537 23.7688 6.73763 23.8017 6.68943C24.0559 6.32939 23.9199 5.86508 23.5003 5.64817C23.0793 5.43274 22.5336 5.54783 22.2784 5.9059Z" fill="#DDA63A"/>
<path d="M17.578 16.7666H19.4345C19.8099 15.4863 19.6544 13.8814 18.1473 12.2312C16.0149 9.89488 18.1723 6.7396 18.2061 6.68746C18.4599 6.3289 18.3259 5.86557 17.9048 5.64817C17.4852 5.43323 16.9385 5.54734 16.6843 5.9059C16.5675 6.07068 13.8488 9.99177 16.7447 13.1613C18.0712 14.6162 17.9559 15.9005 17.578 16.7666Z" fill="#DDA63A"/>
<path d="M11.0889 5.9059C10.9721 6.07117 8.25481 9.99177 11.1488 13.1613C12.4763 14.6167 12.3619 15.9005 11.984 16.7666H13.8396C14.215 15.4873 14.0599 13.8819 12.5518 12.2312C10.4195 9.89537 12.5783 6.73763 12.6122 6.68795C12.8644 6.32939 12.7305 5.86508 12.3099 5.64817C11.8898 5.43175 11.3431 5.54734 11.0889 5.9059Z" fill="#DDA63A"/>
</svg>
