<svg width="37" height="36" viewBox="0 0 37 36" fill="none" xmlns="http://www.w3.org/2000/svg">
<path d="M36.2247 18.7995C36.2247 17.2763 35.2486 16.0407 33.7714 16.0407C33.0333 16.0407 32.1416 16.8515 31.6582 17.3503C31.1744 16.851 30.3416 16.0392 29.603 16.0392C28.1258 16.0392 27.0898 17.2753 27.0898 18.7991C27.0898 19.5607 27.3892 20.2508 27.8735 20.7501L31.6612 24.5528L35.443 20.7546L35.4405 20.7516C35.9248 20.2523 36.2247 19.5617 36.2247 18.7995Z" fill="#4C9F38"/>
<path d="M20.1005 30.7613C20.0876 30.7613 20.0757 30.7603 20.0624 30.7598C19.7743 30.7419 19.5369 30.5278 19.4873 30.2431L17.5645 19.0143L14.6502 24.4287C14.5223 24.6657 14.2556 24.7934 13.9939 24.7462C13.7292 24.699 13.5254 24.4879 13.4873 24.2221L12.2495 15.5559L9.98657 20.6509C9.88644 20.8754 9.66435 21.02 9.41848 21.02H0.621621C0.278591 21.02 0 20.7413 0 20.397C0 20.0527 0.278591 19.774 0.621621 19.774H9.01497L11.9912 13.0723C12.1042 12.8179 12.3709 12.6708 12.6451 12.7081C12.9202 12.7464 13.1363 12.962 13.176 13.2377L14.4509 22.1736L17.325 16.8328C17.4509 16.5978 17.7107 16.4701 17.9724 16.5133C18.2347 16.556 18.4404 16.7607 18.4855 17.023L20.2661 27.4226L26.7589 5.80718C26.8327 5.56075 27.0499 5.38537 27.3057 5.365C27.5624 5.34612 27.8033 5.48424 27.9144 5.71626L31.3313 12.8144C31.4805 13.1249 31.3506 13.4966 31.0418 13.6461C30.7325 13.7956 30.3602 13.6655 30.2105 13.3555L27.4896 7.70058L20.6959 30.3171C20.6161 30.5819 20.3737 30.7613 20.1005 30.7613Z" fill="#4C9F38"/>
</svg>
