<svg width="37" height="36" viewBox="0 0 37 36" fill="none" xmlns="http://www.w3.org/2000/svg">
<path d="M15.1129 12.648L5.42274 7.0408V25.1809L15.1129 28.1112V12.648Z" fill="#C5192D"/>
<path d="M16.1788 12.6848V28.1173L25.9314 25.1785V7.04137L16.1788 12.6848Z" fill="#C5192D"/>
<path d="M31.2452 24.8597L32.3928 28.8756L33.5369 24.8597V8.71982H31.2447L31.2452 24.8597Z" fill="#C5192D"/>
<path d="M28.0125 7.81949L26.9731 6.99675V25.673L16.2072 29.1602H15.1122L4.39398 26.1589V6.99675L3.35498 7.81949V26.8892L15.0636 30.1379H16.2558L27.0583 26.7004L28.0125 26.4192V7.81949Z" fill="#C5192D"/>
<path d="M33.5377 6.58129C33.5377 5.94635 33.0241 5.43164 32.3921 5.43164C31.7576 5.43164 31.245 5.94635 31.245 6.58129V7.81988H33.5377V6.58129Z" fill="#C5192D"/>
</svg>
