<svg width="37" height="36" viewBox="0 0 37 36" fill="none" xmlns="http://www.w3.org/2000/svg">
<path d="M17.7778 22.508C14.2087 22.508 11.3048 19.5971 11.3048 16.0204C11.3048 12.4423 14.2087 9.53139 17.7778 9.53139C21.3474 9.53139 24.2512 12.4423 24.2512 16.0204C24.2512 19.5971 21.3474 22.508 17.7778 22.508ZM30.2097 3.70312H23.4948C23.4492 3.70312 23.41 3.74138 23.41 3.78858V6.02529C23.41 6.07299 23.4492 6.11124 23.4948 6.11124H26.1691L23.1998 9.08723C21.7053 7.91025 19.8231 7.20526 17.7778 7.20526C12.9293 7.20526 8.9834 11.159 8.9834 16.0204C8.9834 20.4944 12.3285 24.1982 16.6426 24.7581V27.3352H13.994C13.9445 27.3352 13.9073 27.3734 13.9073 27.4201V29.8173C13.9073 29.865 13.9445 29.9033 13.994 29.9033H16.6426V32.4391C16.6426 32.4863 16.6808 32.5245 16.7284 32.5245H19.1182C19.1663 32.5245 19.2049 32.4863 19.2049 32.4391V29.9033H21.8535C21.9001 29.9033 21.9383 29.865 21.9383 29.8173V27.4201C21.9383 27.3734 21.9001 27.3352 21.8535 27.3352H19.2049V24.7164C23.3783 24.0308 26.5722 20.3935 26.5722 16.0204C26.5722 14.133 25.9763 12.3847 24.9661 10.9498L27.8927 8.01657V10.5191C27.8927 10.5668 27.9319 10.605 27.979 10.605H30.2097C30.2583 10.605 30.2974 10.5668 30.2974 10.5191V3.78858C30.2974 3.74138 30.2583 3.70312 30.2097 3.70312Z" fill="#FF3A21"/>
<path d="M21.7311 13.357H13.8796C13.8325 13.357 13.7948 13.3917 13.7948 13.433V15.3383C13.7948 15.3835 13.8325 15.4168 13.8796 15.4168H21.7311C21.7802 15.4168 21.8184 15.3835 21.8184 15.3383V13.433C21.8184 13.3917 21.7802 13.357 21.7311 13.357Z" fill="#FF3A21"/>
<path d="M21.7311 16.7588H13.8796C13.8325 16.7588 13.7948 16.7941 13.7948 16.8383V18.7437C13.7948 18.7859 13.8325 18.8202 13.8796 18.8202H21.7311C21.7802 18.8202 21.8184 18.7859 21.8184 18.7437V16.8383C21.8184 16.7941 21.7802 16.7588 21.7311 16.7588Z" fill="#FF3A21"/>
</svg>
