<svg width="37" height="36" viewBox="0 0 37 36" fill="none" xmlns="http://www.w3.org/2000/svg">
<path d="M26.8226 8.38144C26.2922 8.14644 25.6185 8.23091 24.9721 8.49323C22.5397 9.48092 20.885 9.83665 18.3267 9.03378C16.7156 8.52901 15.2086 7.47027 13.4271 8.11465C12.2443 8.54093 11.1433 8.94732 9.8059 8.93689L9.03458 4.96974H27.3778L26.8226 8.38144ZM20.6049 20.1617C20.6049 20.1617 19.7151 21.0788 18.2662 20.9795C16.8147 21.0788 15.9254 20.1617 15.9254 20.1617C14.4561 18.6916 14.9806 16.8623 15.4917 15.9173C15.8074 15.3246 18.0629 11.9288 18.2572 11.6401V11.6173C18.2572 11.6173 18.2607 11.6218 18.2662 11.6282L18.2736 11.6173V11.6401C18.4625 11.9288 20.7229 15.3246 21.0382 15.9173C21.5502 16.8623 22.0722 18.6916 20.6049 20.1617ZM28.1809 4.18177C28.1348 4.13109 28.0733 4.10328 28.0029 4.10328H8.40255C8.33464 4.10328 8.27268 4.13109 8.22658 4.18177C8.18395 4.23592 8.16659 4.30399 8.17749 4.36708L11.4705 24.3286C11.4888 24.4389 11.5845 24.5214 11.6965 24.5214H15.7386L16.0147 27.7721L14.3139 27.7741L18.2711 31.7402L22.2378 27.7651L20.5375 27.7666L20.8136 24.5214H24.926C25.04 24.5214 25.1342 24.4389 25.1516 24.3246L28.2319 4.36708C28.2433 4.29852 28.223 4.23294 28.1809 4.18177Z" fill="#26BDE2"/>
</svg>
