<svg width="37" height="36" viewBox="0 0 37 36" fill="none" xmlns="http://www.w3.org/2000/svg">
<path d="M18.2412 22.5671C15.819 22.5671 13.8558 20.6035 13.8558 18.1813C13.8558 16.2121 15.151 14.5466 16.938 13.9926V15.6247C16.0081 16.0994 15.3695 17.0641 15.3695 18.1813C15.3695 19.7664 16.6548 21.0521 18.2412 21.0521C19.8275 21.0521 21.1125 19.7664 21.1125 18.1813C21.1125 17.061 20.4711 16.0944 19.5373 15.6216V13.9895C21.327 14.5416 22.6273 16.209 22.6273 18.1813C22.6273 20.6035 20.6638 22.5671 18.2412 22.5671ZM17.6152 13.1449C17.6152 12.8636 17.8972 12.5544 18.2431 12.5544C18.5887 12.5544 18.8681 12.8636 18.8681 13.1449V16.0393C18.8681 16.3193 18.5887 16.6248 18.2431 16.6248C17.8972 16.6248 17.6152 16.3193 17.6152 16.0393V13.1449ZM18.2399 9.81377C13.5832 9.81377 9.80755 13.588 9.80755 18.2452C9.80755 22.9048 13.5832 26.679 18.2399 26.679C22.8964 26.679 26.6713 22.9048 26.6713 18.2452C26.6713 13.588 22.8964 9.81377 18.2399 9.81377Z" fill="#FCC30B"/>
<path d="M8.56074 18.1721C8.56074 17.7898 8.22167 17.4799 7.91279 17.4799H4.21994C3.90814 17.4799 3.56641 17.7898 3.56641 18.1721C3.56641 18.555 3.90814 18.8667 4.21994 18.8667H7.91279C8.22167 18.8667 8.56074 18.555 8.56074 18.1721Z" fill="#FCC30B"/>
<path d="M32.917 18.1721C32.917 17.7898 32.5784 17.4799 32.2695 17.4799H28.5762C28.2656 17.4799 27.9234 17.7898 27.9234 18.1721C27.9234 18.555 28.2656 18.8667 28.5762 18.8667H32.2695C32.5784 18.8667 32.917 18.555 32.917 18.1721Z" fill="#FCC30B"/>
<path d="M18.2439 32.8475C18.6254 32.8475 18.9352 32.5091 18.9352 32.1999V28.5082C18.9352 28.1965 18.6254 27.8544 18.2439 27.8544C17.8607 27.8544 17.5485 28.1965 17.5485 28.5082V32.1999C17.5485 32.5091 17.8607 32.8475 18.2439 32.8475Z" fill="#FCC30B"/>
<path d="M30.9794 25.4613C31.1691 25.1292 31.029 24.6917 30.7608 24.538L27.5561 22.7045C27.2858 22.5496 26.8346 22.6488 26.6458 22.9815C26.455 23.3136 26.5969 23.7542 26.867 23.9085L30.0724 25.742C30.3406 25.8957 30.7887 25.794 30.9794 25.4613Z" fill="#FCC30B"/>
<path d="M10.9537 30.9107C11.2854 31.1003 11.722 30.9603 11.8757 30.6914L13.7099 27.4872C13.8648 27.2171 13.7658 26.7653 13.4335 26.5763C13.1019 26.3861 12.6609 26.528 12.5065 26.7976L10.6725 30.0023C10.5188 30.2712 10.6209 30.7205 10.9537 30.9107Z" fill="#FCC30B"/>
<path d="M25.5587 30.8945C25.89 30.703 25.9898 30.2563 25.836 29.9873L23.9953 26.7857C23.8389 26.5167 23.401 26.3742 23.069 26.5657C22.7367 26.7559 22.6374 27.2076 22.793 27.4778L24.6336 30.6788C24.7877 30.9471 25.2263 31.0853 25.5587 30.8945Z" fill="#FCC30B"/>
<path d="M5.52117 25.4892C5.71146 25.8207 6.15946 25.9205 6.4272 25.7668L9.62824 23.9259C9.89834 23.771 10.0409 23.3316 9.84945 23.0001C9.65923 22.668 9.20732 22.5689 8.93766 22.7232L5.73686 24.5641C5.46844 24.7184 5.32976 25.1577 5.52117 25.4892Z" fill="#FCC30B"/>
<path d="M18.2439 8.49232C18.6254 8.49232 18.9352 8.15276 18.9352 7.84418V4.15052C18.9352 3.83946 18.6254 3.49805 18.2439 3.49805C17.8607 3.49805 17.5485 3.83946 17.5485 4.15052V7.84418C17.5485 8.15276 17.8607 8.49232 18.2439 8.49232Z" fill="#FCC30B"/>
<path d="M9.8397 13.3624C10.0299 13.0303 9.88976 12.5935 9.6209 12.4404L6.41621 10.6069C6.14604 10.452 5.69563 10.5499 5.50608 10.882C5.31511 11.2148 5.45769 11.6547 5.72779 11.8096L8.93249 13.6438C9.20091 13.7974 9.64941 13.6952 9.8397 13.3624Z" fill="#FCC30B"/>
<path d="M23.0526 9.77092C23.3847 9.96115 23.8204 9.82049 23.9745 9.55281L25.8088 6.34805C25.9637 6.07665 25.8642 5.62679 25.5331 5.43656C25.2002 5.24571 24.7597 5.38761 24.6053 5.65839L22.7713 8.86253C22.6176 9.13207 22.7193 9.58131 23.0526 9.77092Z" fill="#FCC30B"/>
<path d="M13.4166 9.7796C13.748 9.58875 13.8479 9.14137 13.6935 8.87245L11.8528 5.6714C11.6964 5.40062 11.2585 5.25997 10.927 5.45081C10.5942 5.64166 10.4949 6.09276 10.6505 6.36292L12.4916 9.56396C12.646 9.83164 13.0838 9.97044 13.4166 9.7796Z" fill="#FCC30B"/>
<path d="M26.6359 13.3482C26.8262 13.6791 27.2742 13.7782 27.5426 13.6252L30.743 11.7836C31.0131 11.6281 31.1561 11.1894 30.9649 10.8579C30.774 10.527 30.3227 10.4272 30.0526 10.5821L26.8516 12.4231C26.5834 12.5767 26.4445 13.0161 26.6359 13.3482Z" fill="#FCC30B"/>
</svg>
