<svg width="37" height="36" viewBox="0 0 37 36" fill="none" xmlns="http://www.w3.org/2000/svg">
<path d="M26.8451 11.9335L22.2326 16.3215C22.0581 16.4945 21.9689 16.6224 21.9689 16.9808V29.2788C21.9689 29.4231 22.0873 29.541 22.2326 29.541H26.9973C27.1426 29.541 27.2601 29.4231 27.2601 29.2788V12.0445C27.2601 11.8992 27.1465 11.634 26.8451 11.9335Z" fill="#A21942"/>
<path d="M13.5566 17.6503L8.94356 22.0378C8.76957 22.2108 8.68034 22.3382 8.68034 22.6966V29.2786C8.68034 29.4224 8.79881 29.5398 8.94356 29.5398H13.7083C13.8541 29.5398 13.971 29.4224 13.971 29.2786V17.7603C13.971 17.6151 13.8565 17.3494 13.5566 17.6503Z" fill="#A21942"/>
<path d="M28.9418 6.61241C28.9433 6.57672 28.9309 6.53955 28.9021 6.51179C28.8783 6.48898 28.8471 6.47709 28.8174 6.47461L28.7921 6.47609L28.7539 6.47857L25.222 7.27517L25.158 7.28212C25.1328 7.28707 25.109 7.29947 25.0891 7.31781C25.0371 7.37085 25.0371 7.45562 25.0891 7.50767L25.1288 7.54782L25.9358 8.35384L17.9326 16.3581L14.2356 12.6616C14.1939 12.6189 14.1275 12.6189 14.0854 12.6616L13.0825 13.6639C13.0811 13.6639 13.0811 13.6654 13.0811 13.6654L7.15635 19.5896C7.1152 19.6317 7.1152 19.6991 7.15635 19.7403L8.16065 20.7441C8.2013 20.7862 8.26822 20.7862 8.30937 20.7441L14.1612 14.8942L16.844 17.577C16.8465 17.581 16.848 17.5854 16.8524 17.5894L17.8557 18.5917C17.8974 18.6339 17.9643 18.6339 18.0064 18.5917L27.0893 9.50785L27.9365 10.3545C27.9885 10.4076 28.0733 10.4076 28.1249 10.3545C28.1496 10.3302 28.162 10.2995 28.1635 10.2683L28.164 10.2564L28.9398 6.65108L28.9418 6.61241Z" fill="#A21942"/>
<path d="M20.2266 18.4208L17.995 20.6708C17.9523 20.7055 17.8904 20.704 17.8507 20.6648L15.8287 18.6042C15.4589 18.2359 15.3791 18.5343 15.3791 18.679V29.2778C15.3791 29.422 15.4956 29.5405 15.6403 29.5405H20.4061C20.5508 29.5405 20.6683 29.422 20.6683 29.2778V18.504C20.6683 18.3593 20.5538 18.0926 20.2266 18.4208Z" fill="#A21942"/>
</svg>
