<svg width="37" height="36" viewBox="0 0 37 36" fill="none" xmlns="http://www.w3.org/2000/svg">
<path d="M31.3503 27.8335L25.471 31.2266V24.4404L31.3503 21.0461V27.8335ZM11.9291 31.2266V24.9557L17.3604 28.0921L11.9291 31.2266ZM11.036 31.2266L5.15728 27.8335V21.0461L11.036 24.4404V31.2266ZM17.3604 12.4527L11.9291 15.5897V9.31746L17.3604 12.4527ZM24.5779 15.5891L19.1472 12.4527L24.5779 9.31746V15.5891ZM19.1472 20.2724L25.0247 16.8792L30.9035 20.2724L25.0247 23.6667L19.1472 20.2724ZM17.8072 19.4986L12.376 16.3628L17.8072 13.2276V19.4986ZM24.131 16.3634L18.7004 19.4986V13.2276L24.131 16.3634ZM17.8072 27.3183L12.376 24.1819L17.8072 21.0461V27.3183ZM32.0203 19.8843L25.471 16.1049V8.54431C25.471 8.38416 25.3864 8.2366 25.2479 8.15683L18.4772 4.24788C18.3387 4.16811 18.1689 4.16811 18.0304 4.24788L11.2591 8.15683C11.1206 8.2366 11.036 8.38416 11.036 8.54431V16.1049L4.48789 19.8843C4.34933 19.9653 4.26416 20.1116 4.26416 20.2724V28.0921C4.26416 28.2516 4.34933 28.3992 4.48789 28.4789L11.2591 32.3879C11.3287 32.4269 11.4049 32.4473 11.4823 32.4473C11.5596 32.4473 11.6364 32.4269 11.7054 32.3879L18.2535 28.6073L24.8016 32.3879C24.8706 32.4269 24.9474 32.4473 25.0247 32.4473C25.1021 32.4473 25.1789 32.4275 25.2479 32.3879L32.0203 28.4789C32.1588 28.3992 32.2434 28.2516 32.2434 28.0921V20.2724C32.2434 20.1116 32.1588 19.9641 32.0203 19.8843Z" fill="#FD6925"/>
</svg>
