<svg width="150" height="50" viewBox="0 0 150 50" fill="none" xmlns="http://www.w3.org/2000/svg">
<g clip-path="url(#clip0_211_5961)">
<path d="M59.3896 8.80005H65.3896C69.0096 8.80005 71.7396 11.01 71.7396 15.52C71.7396 19.46 69.6596 22.4 65.3896 22.4H59.3896V8.80005ZM62.4697 19.88H65.2096C66.9996 19.88 68.6996 18.82 68.6996 15.81C68.6996 13.06 67.6996 11.31 64.6996 11.31H62.4697V19.88Z" fill="#9D2235"/>
<path d="M76.75 11H74V8.80005H76.79L76.75 11ZM74 12.55H76.79V22.4H74V12.55Z" fill="#9D2235"/>
<path d="M79.2998 12.5499H81.9998V13.7999C82.3237 13.3068 82.771 12.907 83.2973 12.6403C83.8236 12.3736 84.4106 12.2494 84.9998 12.2799C88.1798 12.2799 89.6098 14.7799 89.6098 17.5799C89.6098 20.2099 88.1198 22.6599 85.1498 22.6599C84.5679 22.6711 83.9917 22.5425 83.4697 22.285C82.9477 22.0274 82.4951 21.6485 82.1498 21.1799V25.8599H79.2998V12.5499ZM86.8298 17.4999C86.8298 15.9399 86.1898 14.3199 84.3998 14.3199C82.6098 14.3199 81.9998 15.8999 81.9998 17.4999C81.9998 19.0999 82.6198 20.6299 84.4298 20.6299C86.2398 20.6299 86.8298 19.0999 86.8298 17.4999Z" fill="#9D2235"/>
<path d="M101.06 22.4H98.4098V21H98.3498C98.0137 21.513 97.5531 21.9325 97.011 22.2193C96.4689 22.506 95.863 22.6508 95.2498 22.64C92.2498 22.64 91.5498 21.03 91.5498 18.58V12.55H94.3298V18.11C94.3298 19.73 94.8198 20.53 96.1198 20.53C97.6298 20.53 98.2698 19.71 98.2698 17.71V12.55H101.06V22.4Z" fill="#9D2235"/>
<path d="M107.16 12.55H109.16V14.35H107.16V19.24C107.16 20.15 107.39 20.38 108.34 20.38C108.629 20.3832 108.917 20.3564 109.2 20.3V22.42C108.66 22.487 108.115 22.5171 107.57 22.51C105.86 22.51 104.37 22.13 104.37 20.17V14.35H102.69V12.55H104.37V9.55005H107.16V12.55Z" fill="#9D2235"/>
<path d="M111.35 15.58C111.5 13.05 113.84 12.28 116.11 12.28C118.11 12.28 120.56 12.72 120.56 15.08V20.21C120.514 20.9578 120.637 21.7062 120.92 22.4H118.09C117.99 22.0742 117.923 21.7392 117.89 21.4C117.432 21.818 116.896 22.1411 116.312 22.3505C115.729 22.5599 115.109 22.6515 114.49 22.62C112.56 22.62 111.04 21.69 111.04 19.67C111.04 17.44 112.76 16.91 114.49 16.67C116.22 16.43 117.78 16.48 117.78 15.38C117.78 14.28 116.96 14.04 115.98 14.04C115 14.04 114.23 14.46 114.13 15.53L111.35 15.58ZM117.78 17.58C117.058 17.9282 116.271 18.1223 115.47 18.15C114.6 18.32 113.82 18.6 113.82 19.6C113.82 20.6 114.62 20.86 115.53 20.86C115.837 20.902 116.15 20.872 116.443 20.7725C116.737 20.6729 117.003 20.5065 117.221 20.2864C117.44 20.0663 117.604 19.7984 117.701 19.504C117.798 19.2096 117.825 18.8967 117.78 18.59V17.58Z" fill="#9D2235"/>
<path d="M129.7 16C129.649 15.5007 129.403 15.0417 129.016 14.7232C128.628 14.4047 128.13 14.2525 127.63 14.3C125.84 14.3 125.26 16.06 125.26 17.5C125.26 18.94 125.83 20.61 127.58 20.61C128.138 20.6372 128.684 20.4419 129.099 20.067C129.513 19.692 129.762 19.168 129.79 18.61H132.48C132.13 21.21 130.26 22.61 127.6 22.61C126.924 22.6483 126.247 22.5445 125.613 22.3052C124.979 22.066 124.402 21.6965 123.92 21.2207C123.437 20.745 123.06 20.1734 122.812 19.5429C122.564 18.9124 122.451 18.2369 122.48 17.56C122.48 14.5 124.36 12.23 127.65 12.23C130.05 12.23 132.25 13.45 132.42 15.97L129.7 16Z" fill="#9D2235"/>
<path d="M137.46 11H134.68V8.80005H137.46V11ZM134.68 12.52H137.46V22.4H134.68V12.52Z" fill="#9D2235"/>
<path d="M144.74 12.2799C145.439 12.2286 146.141 12.3275 146.798 12.5698C147.455 12.8122 148.053 13.1924 148.551 13.685C149.05 14.1775 149.437 14.771 149.687 15.4256C149.937 16.0801 150.043 16.7806 150 17.4799C150 18.8723 149.447 20.2076 148.463 21.1922C147.478 22.1768 146.143 22.7299 144.75 22.7299C143.358 22.7299 142.022 22.1768 141.038 21.1922C140.053 20.2076 139.5 18.8723 139.5 17.4799C139.456 16.782 139.561 16.0826 139.809 15.4288C140.057 14.775 140.442 14.1819 140.939 13.6893C141.435 13.1967 142.031 12.8161 142.687 12.573C143.343 12.3299 144.043 12.2299 144.74 12.2799ZM144.74 20.6299C146.64 20.6299 147.21 19.0399 147.21 17.4799C147.21 15.9199 146.64 14.3199 144.74 14.3199C142.84 14.3199 142.29 15.8999 142.29 17.4799C142.29 19.0599 142.86 20.6299 144.74 20.6299ZM145.21 11.3299H143.27L145.15 8.62988H148.24L145.21 11.3299Z" fill="#9D2235"/>
<path d="M59.3496 28.8301H65.7396C68.3396 28.8301 70.0896 29.6701 70.0896 32.2001C70.0954 32.798 69.9224 33.3841 69.5928 33.883C69.2631 34.3819 68.7919 34.7709 68.2396 35.0001C68.9948 35.1906 69.659 35.6405 70.116 36.2712C70.573 36.9018 70.7938 37.6731 70.7396 38.4501C70.7396 41.2101 68.3896 42.3901 65.9396 42.3901H59.3496V28.8301ZM62.3496 34.3301H65.3496C66.3496 34.3301 67.1796 33.8601 67.1796 32.7201C67.1796 31.5801 66.1796 31.1501 65.1796 31.1501H62.3796L62.3496 34.3301ZM62.3496 40.1101H65.5496C66.7296 40.1101 67.7496 39.7301 67.7496 38.3201C67.7496 36.9101 66.8796 36.3801 65.5996 36.3801H62.3396L62.3496 40.1101Z" fill="#9D2235"/>
<path d="M72.3898 35.6201C72.5498 33.0801 74.8098 32.3101 77.0198 32.3101C79.0198 32.3101 81.3498 32.7601 81.3498 35.1201V40.2401C81.2979 40.9863 81.4141 41.7347 81.6898 42.4301H78.9398C78.8354 42.1063 78.7748 41.7699 78.7598 41.4301C78.3164 41.8449 77.7938 42.1658 77.2233 42.3737C76.6528 42.5817 76.0462 42.6722 75.4398 42.6401C73.5798 42.6401 72.0898 41.7201 72.0898 39.7001C72.0898 37.4701 73.7698 36.9301 75.4398 36.7001C77.1098 36.4701 78.6398 36.5001 78.6398 35.4001C78.6398 34.3001 77.8398 34.0701 76.8898 34.0701C75.9398 34.0701 75.1898 34.4901 75.0998 35.5601L72.3898 35.6201ZM78.6398 37.6201C77.9405 37.9721 77.1725 38.1667 76.3898 38.1901C75.5498 38.3601 74.7898 38.6501 74.7898 39.6401C74.7898 40.6301 75.5698 40.9001 76.4498 40.9001C76.7523 40.932 77.058 40.8945 77.3438 40.7905C77.6296 40.6864 77.8879 40.5186 78.099 40.2997C78.3102 40.0809 78.4687 39.8167 78.5624 39.5274C78.6561 39.2381 78.6826 38.9312 78.6398 38.6301V37.6201Z" fill="#9D2235"/>
<path d="M83.4802 32.5801H86.0502V34.4101C86.3158 33.7949 86.7534 33.2694 87.3104 32.8969C87.8674 32.5244 88.5201 32.3206 89.1902 32.3101C89.3914 32.3157 89.5904 32.3528 89.7802 32.4201V34.9301C89.4522 34.8555 89.1163 34.822 88.7802 34.8301C86.7802 34.8301 86.1102 36.2701 86.1102 37.9901V42.4301H83.4102L83.4802 32.5801Z" fill="#9D2235"/>
<path d="M97.2897 36.0501C97.2696 35.8077 97.2018 35.5717 97.0904 35.3555C96.9789 35.1394 96.8259 34.9473 96.6401 34.7904C96.4544 34.6334 96.2395 34.5146 96.0078 34.4408C95.7761 34.3669 95.5321 34.3395 95.2897 34.3601C93.5497 34.3601 92.9797 36.1101 92.9797 37.5601C92.9797 39.0101 93.5297 40.6601 95.2297 40.6601C95.7808 40.679 96.317 40.4795 96.7216 40.1049C97.1262 39.7303 97.3663 39.2109 97.3897 38.6601H99.9997C99.9005 39.8186 99.3456 40.8905 98.457 41.6404C97.5683 42.3903 96.4185 42.757 95.2597 42.6601C94.5944 42.693 93.9296 42.5862 93.308 42.3466C92.6865 42.107 92.122 41.7398 91.651 41.2688C91.18 40.7978 90.8128 40.2333 90.5732 39.6118C90.3336 38.9902 90.2268 38.3254 90.2597 37.6601C90.2597 34.6001 92.0897 32.3201 95.2597 32.3201C97.5797 32.3201 99.7097 33.5501 99.8897 36.0601L97.2897 36.0501Z" fill="#9D2235"/>
<path d="M103.78 38.17C103.86 39.88 104.7 40.66 106.2 40.66C106.643 40.6828 107.083 40.5732 107.464 40.3453C107.845 40.1174 108.15 39.7814 108.34 39.38H110.72C110.462 40.3869 109.857 41.2707 109.012 41.876C108.167 42.4814 107.136 42.7696 106.1 42.69C105.42 42.7204 104.742 42.6062 104.11 42.3547C103.479 42.1033 102.907 41.7206 102.435 41.2317C101.962 40.7429 101.598 40.1592 101.368 39.5194C101.138 38.8795 101.047 38.198 101.1 37.52C101.063 36.8439 101.165 36.1673 101.4 35.5323C101.636 34.8974 101.999 34.3176 102.468 33.829C102.937 33.3404 103.501 32.9535 104.126 32.6922C104.751 32.4309 105.422 32.3008 106.1 32.31C109.46 32.31 111.1 35.14 110.89 38.17H103.78ZM108.18 36.45C107.93 35.08 107.35 34.36 106.03 34.36C105.744 34.3452 105.458 34.388 105.188 34.4858C104.919 34.5835 104.672 34.7343 104.463 34.9292C104.253 35.1241 104.084 35.3592 103.967 35.6204C103.85 35.8816 103.786 36.1637 103.78 36.45H108.18Z" fill="#9D2235"/>
<path d="M112.6 28.8301H115.31V42.4301H112.6V28.8301Z" fill="#9D2235"/>
<path d="M122.26 32.3101C122.949 32.2708 123.639 32.3796 124.283 32.6291C124.927 32.8786 125.51 33.263 125.993 33.7566C126.477 34.2501 126.848 34.8412 127.084 35.4904C127.32 36.1395 127.414 36.8316 127.36 37.5201C127.39 38.2081 127.281 38.8952 127.039 39.54C126.797 40.1847 126.426 40.7737 125.95 41.2713C125.474 41.769 124.902 42.1651 124.269 42.4357C123.635 42.7063 122.954 42.8458 122.265 42.8458C121.576 42.8458 120.895 42.7063 120.261 42.4357C119.628 42.1651 119.056 41.769 118.58 41.2713C118.104 40.7737 117.733 40.1847 117.491 39.54C117.249 38.8952 117.14 38.2081 117.17 37.5201C117.116 36.8324 117.21 36.1413 117.445 35.4929C117.68 34.8445 118.051 34.2539 118.533 33.7605C119.015 33.2672 119.597 32.8825 120.24 32.6324C120.883 32.3822 121.571 32.2723 122.26 32.3101ZM122.26 40.6601C124.11 40.6601 124.66 39.0801 124.66 37.5201C124.66 35.9601 124.11 34.3601 122.26 34.3601C120.41 34.3601 119.88 35.9301 119.88 37.5201C119.88 39.1101 120.43 40.6601 122.26 40.6601Z" fill="#9D2235"/>
<path d="M129.15 32.5799H131.73V33.9999H131.78C132.1 33.4948 132.543 33.0793 133.068 32.7925C133.593 32.5056 134.182 32.3568 134.78 32.3599C137.65 32.3599 138.38 33.9799 138.38 36.4299V42.4299H135.68V36.8699C135.68 35.2499 135.21 34.4499 133.94 34.4499C132.48 34.4499 131.85 35.2699 131.85 37.2699V42.4299H129.14L129.15 32.5799Z" fill="#9D2235"/>
<path d="M140.37 35.6201C140.52 33.0801 142.79 32.3101 145 32.3101C147 32.3101 149.33 32.7601 149.33 35.1201V40.2401C149.278 40.9863 149.395 41.7347 149.67 42.4301H146.93C146.817 42.1081 146.753 41.771 146.74 41.4301C146.297 41.8449 145.774 42.1658 145.204 42.3737C144.633 42.5817 144.027 42.6722 143.42 42.6401C141.55 42.6401 140.07 41.7201 140.07 39.7001C140.07 37.4701 141.74 36.9301 143.42 36.7001C145.1 36.4701 146.62 36.5001 146.62 35.4001C146.62 34.3001 145.82 34.0701 144.87 34.0701C143.92 34.0701 143.17 34.4901 143.07 35.5601L140.37 35.6201ZM146.62 37.6201C145.924 37.971 145.16 38.1655 144.38 38.1901C143.54 38.3601 142.77 38.6501 142.77 39.6401C142.77 40.6301 143.56 40.9001 144.43 40.9001C144.733 40.932 145.038 40.8945 145.324 40.7905C145.61 40.6864 145.868 40.5186 146.079 40.2997C146.291 40.0809 146.449 39.8167 146.543 39.5274C146.637 39.2381 146.663 38.9312 146.62 38.6301V37.6201Z" fill="#9D2235"/>
<path d="M24.6598 20.0001L23.0598 21.6101V27.7401H16.9998L15.3898 29.3501L16.9998 31.0001H23.1098V37.1301L24.7098 38.7401L26.3298 37.1301V31.0001H32.4398L33.9998 29.3401L32.3798 27.7301H26.2798V21.6001L24.6598 20.0001ZM24.6598 0.340086C19.7809 0.344042 15.0128 1.79453 10.9583 4.50815C6.90373 7.22177 3.74483 11.0767 1.88098 15.5854C0.0171245 20.0942 -0.467987 25.0544 0.486979 29.8389C1.44194 34.6234 3.7941 39.0172 7.24606 42.465C10.698 45.9128 15.0948 48.2596 19.8804 49.2087C24.666 50.1579 29.6256 49.6667 34.1321 47.7974C38.6386 45.9281 42.4897 42.7645 45.1984 38.7066C47.9071 34.6488 49.3517 29.8789 49.3498 25.0001C49.3511 21.7592 48.7136 18.5498 47.4736 15.5554C46.2337 12.5611 44.4156 9.84051 42.1235 7.54929C39.8314 5.25808 37.1101 3.44116 34.1152 2.20243C31.1203 0.963699 27.9107 0.327457 24.6698 0.330086M33.6698 9.72009C33.8676 9.72009 34.0609 9.77874 34.2253 9.88862C34.3898 9.9985 34.518 10.1547 34.5937 10.3374C34.6693 10.5201 34.6891 10.7212 34.6506 10.9152C34.612 11.1092 34.5167 11.2873 34.3769 11.4272C34.237 11.567 34.0588 11.6623 33.8649 11.7009C33.6709 11.7395 33.4698 11.7197 33.2871 11.644C33.1044 11.5683 32.9482 11.4401 32.8383 11.2757C32.7284 11.1112 32.6698 10.9179 32.6698 10.7201C32.6698 10.4549 32.7751 10.2005 32.9627 10.013C33.1502 9.82544 33.4046 9.72009 33.6698 9.72009ZM15.3498 14.8601H33.9398V15.5101H15.3498V14.8601ZM30.4598 16.8001V22.5701L27.5698 19.6601V16.8001H30.4598ZM21.7698 16.8001V19.6801L18.8698 22.5701V16.8001H21.7698ZM16.6198 16.8001V24.8001L13.7198 27.6901V16.8001H16.6198ZM15.3498 12.6101H33.9998V13.9001H15.3498V12.6101ZM32.7098 16.8001H35.6098V27.7101L32.7098 24.8101V16.8001ZM32.0698 10.6901C32.0698 10.8879 32.0111 11.0812 31.9012 11.2457C31.7914 11.4101 31.6352 11.5383 31.4525 11.614C31.2697 11.6897 31.0687 11.7095 30.8747 11.6709C30.6807 11.6323 30.5025 11.537 30.3627 11.3972C30.2228 11.2573 30.1276 11.0792 30.089 10.8852C30.0504 10.6912 30.0702 10.4901 30.1459 10.3074C30.2216 10.1247 30.3498 9.9685 30.5142 9.85862C30.6787 9.74873 30.872 9.69009 31.0698 9.69009C31.335 9.69009 31.5893 9.79544 31.7769 9.98298C31.9644 10.1705 32.0698 10.4249 32.0698 10.6901ZM29.8198 7.47009C30.0176 7.47009 30.2109 7.52874 30.3753 7.63862C30.5398 7.7485 30.668 7.90468 30.7437 8.0874C30.8193 8.27013 30.8391 8.4712 30.8006 8.66518C30.762 8.85916 30.6667 9.03734 30.5269 9.17719C30.387 9.31705 30.2088 9.41229 30.0149 9.45087C29.8209 9.48946 29.6198 9.46965 29.4371 9.39397C29.2544 9.31828 29.0982 9.1901 28.9883 9.02566C28.8784 8.86121 28.8198 8.66787 28.8198 8.47009C28.8198 8.20487 28.9251 7.95052 29.1127 7.76298C29.3002 7.57544 29.5546 7.47009 29.8198 7.47009ZM28.5498 9.72009C28.7476 9.72009 28.9409 9.77874 29.1053 9.88862C29.2698 9.9985 29.398 10.1547 29.4737 10.3374C29.5493 10.5201 29.5691 10.7212 29.5306 10.9152C29.492 11.1092 29.3967 11.2873 29.2569 11.4272C29.117 11.567 28.9388 11.6623 28.7449 11.7009C28.5509 11.7395 28.3498 11.7197 28.1671 11.644C27.9844 11.5683 27.8282 11.4401 27.7183 11.2757C27.6084 11.1112 27.5498 10.9179 27.5498 10.7201C27.5498 10.4549 27.6551 10.2005 27.8427 10.013C28.0302 9.82544 28.2846 9.72009 28.5498 9.72009ZM26.9298 10.7201C26.9298 10.9179 26.8711 11.1112 26.7612 11.2757C26.6514 11.4401 26.4952 11.5683 26.3125 11.644C26.1297 11.7197 25.9287 11.7395 25.7347 11.7009C25.5407 11.6623 25.3625 11.567 25.2227 11.4272C25.0828 11.2873 24.9876 11.1092 24.949 10.9152C24.9104 10.7212 24.9302 10.5201 25.0059 10.3374C25.0816 10.1547 25.2098 9.9985 25.3742 9.88862C25.5387 9.77874 25.732 9.72009 25.9298 9.72009C26.195 9.72009 26.4493 9.82544 26.6369 10.013C26.8244 10.2005 26.9298 10.4549 26.9298 10.7201ZM24.6698 7.47009C24.8676 7.47009 25.0609 7.52874 25.2253 7.63862C25.3898 7.7485 25.518 7.90468 25.5937 8.0874C25.6693 8.27013 25.6891 8.4712 25.6506 8.66518C25.612 8.85916 25.5167 9.03734 25.3769 9.17719C25.237 9.31705 25.0588 9.41229 24.8649 9.45087C24.6709 9.48946 24.4698 9.46965 24.2871 9.39397C24.1044 9.31828 23.9482 9.1901 23.8383 9.02566C23.7284 8.86121 23.6698 8.66787 23.6698 8.47009C23.6698 8.20487 23.7751 7.95052 23.9627 7.76298C24.1502 7.57544 24.4046 7.47009 24.6698 7.47009ZM23.3798 9.72009C23.5776 9.72009 23.7709 9.77874 23.9353 9.88862C24.0998 9.9985 24.228 10.1547 24.3037 10.3374C24.3793 10.5201 24.3991 10.7212 24.3606 10.9152C24.322 11.1092 24.2267 11.2873 24.0869 11.4272C23.947 11.567 23.7688 11.6623 23.5749 11.7009C23.3809 11.7395 23.1798 11.7197 22.9971 11.644C22.8144 11.5683 22.6582 11.4401 22.5483 11.2757C22.4384 11.1112 22.3798 10.9179 22.3798 10.7201C22.3798 10.4549 22.4851 10.2005 22.6727 10.013C22.8602 9.82544 23.1146 9.72009 23.3798 9.72009ZM21.7698 10.7201C21.7698 10.9179 21.7111 11.1112 21.6012 11.2757C21.4914 11.4401 21.3352 11.5683 21.1525 11.644C20.9697 11.7197 20.7687 11.7395 20.5747 11.7009C20.3807 11.6623 20.2025 11.567 20.0627 11.4272C19.9228 11.2873 19.8276 11.1092 19.789 10.9152C19.7504 10.7212 19.7702 10.5201 19.8459 10.3374C19.9216 10.1547 20.0498 9.9985 20.2142 9.88862C20.3787 9.77874 20.572 9.72009 20.7698 9.72009C21.035 9.72009 21.2893 9.82544 21.4769 10.013C21.6644 10.2005 21.7698 10.4549 21.7698 10.7201ZM19.5198 7.47009C19.7176 7.47009 19.9109 7.52874 20.0753 7.63862C20.2398 7.7485 20.368 7.90468 20.4437 8.0874C20.5193 8.27013 20.5391 8.4712 20.5006 8.66518C20.462 8.85916 20.3667 9.03734 20.2269 9.17719C20.087 9.31705 19.9088 9.41229 19.7149 9.45087C19.5209 9.48946 19.3198 9.46965 19.1371 9.39397C18.9544 9.31828 18.7982 9.1901 18.6883 9.02566C18.5784 8.86121 18.5198 8.66787 18.5198 8.47009C18.5198 8.20487 18.6251 7.95052 18.8127 7.76298C19.0002 7.57544 19.2546 7.47009 19.5198 7.47009ZM18.2398 9.72009C18.4376 9.72009 18.6309 9.77874 18.7953 9.88862C18.9598 9.9985 19.088 10.1547 19.1637 10.3374C19.2393 10.5201 19.2591 10.7212 19.2206 10.9152C19.182 11.1092 19.0867 11.2873 18.9469 11.4272C18.807 11.567 18.6288 11.6623 18.4349 11.7009C18.2409 11.7395 18.0398 11.7197 17.8571 11.644C17.6744 11.5683 17.5182 11.4401 17.4083 11.2757C17.2984 11.1112 17.2398 10.9179 17.2398 10.7201C17.2398 10.4549 17.3451 10.2005 17.5327 10.013C17.7202 9.82544 17.9746 9.72009 18.2398 9.72009ZM16.6298 10.7201C16.6298 10.9179 16.5711 11.1112 16.4612 11.2757C16.3514 11.4401 16.1952 11.5683 16.0125 11.644C15.8297 11.7197 15.6287 11.7395 15.4347 11.7009C15.2407 11.6623 15.0625 11.567 14.9227 11.4272C14.7828 11.2873 14.6876 11.1092 14.649 10.9152C14.6104 10.7212 14.6302 10.5201 14.7059 10.3374C14.7816 10.1547 14.9098 9.9985 15.0742 9.88862C15.2387 9.77874 15.432 9.72009 15.6298 9.72009C15.895 9.72009 16.1493 9.82544 16.3369 10.013C16.5244 10.2005 16.6298 10.4549 16.6298 10.7201ZM14.3698 7.47009C14.5676 7.47009 14.7609 7.52874 14.9253 7.63862C15.0898 7.7485 15.218 7.90468 15.2937 8.0874C15.3693 8.27013 15.3891 8.4712 15.3506 8.66518C15.312 8.85916 15.2167 9.03734 15.0769 9.17719C14.937 9.31705 14.7588 9.41229 14.5649 9.45087C14.3709 9.48946 14.1698 9.46965 13.9871 9.39397C13.8044 9.31828 13.6482 9.1901 13.5383 9.02566C13.4284 8.86121 13.3698 8.66787 13.3698 8.47009C13.3698 8.20487 13.4751 7.95052 13.6627 7.76298C13.8502 7.57544 14.1046 7.47009 14.3698 7.47009ZM16.6198 42.5301H13.7198V31.0001L16.6198 33.8901V42.5301ZM21.7698 42.5301H18.8698V36.1101L21.7698 39.0101V42.5301ZM30.4598 42.5301H27.5698V39.0001L30.4598 36.1001V42.5301ZM35.6098 42.5301H32.7098V33.8701L35.6098 30.9701V42.5301ZM24.6698 40.4801L13.5298 29.3401L24.6698 18.2001L35.8098 29.3401L24.6698 40.4801ZM34.9998 9.41009C34.802 9.41009 34.6087 9.35144 34.4442 9.24156C34.2798 9.13167 34.1516 8.9755 34.0759 8.79277C34.0002 8.61004 33.9804 8.40898 34.019 8.215C34.0576 8.02101 34.1528 7.84283 34.2927 7.70298C34.4325 7.56313 34.6107 7.46789 34.8047 7.4293C34.9987 7.39072 35.1997 7.41052 35.3825 7.48621C35.5652 7.56189 35.7214 7.69007 35.8312 7.85452C35.9411 8.01897 35.9998 8.2123 35.9998 8.41009C35.9998 8.6753 35.8944 8.92966 35.7069 9.11719C35.5193 9.30473 35.265 9.41009 34.9998 9.41009Z" fill="#9D2235"/>
</g>
<defs>
<clipPath id="clip0_211_5961">
<rect width="150" height="50" fill="white"/>
</clipPath>
</defs>
</svg>
