<svg width="24" height="24" viewBox="0 0 24 24" fill="none" xmlns="http://www.w3.org/2000/svg">
<path d="M24 12.0735C24 5.40447 18.627 -0.00152588 12 -0.00152588C5.36999 -2.58789e-05 -0.00300598 5.40448 -0.00300598 12.075C-0.00300598 18.1005 4.38599 23.0955 10.122 24.0015V15.564H7.07699V12.075H10.125V9.41247C10.125 6.38697 11.9175 4.71597 14.658 4.71597C15.972 4.71597 17.3445 4.95147 17.3445 4.95147V7.92147H15.831C14.3415 7.92147 13.8765 8.85297 13.8765 9.80847V12.0735H17.2035L16.6725 15.5625H13.875V24C19.611 23.094 24 18.099 24 12.0735Z" fill="black"/>
</svg>
