<svg width="24" height="24" viewBox="0 0 24 24" fill="none" xmlns="http://www.w3.org/2000/svg">
<path d="M6.1651 8.57617C6.46367 8.06892 6.82585 7.60419 7.2406 7.19236L3.71357 3.32488C2.82662 4.17322 2.0698 5.15591 1.47461 6.23953L6.1651 8.57617Z" fill="#56C02B"/>
<path d="M14.811 5.84355C15.3452 6.08829 15.8414 6.40088 16.2903 6.77026L19.8267 2.90825C18.8953 2.10456 17.8386 1.44174 16.6924 0.952254L14.811 5.84355Z" fill="#DDA63A"/>
<path d="M22.911 7.00734L18.2231 9.34431C18.4474 9.86681 18.6061 10.4218 18.6927 11.0007L23.9074 10.5081C23.7538 9.27356 23.4121 8.09647 22.911 7.00734Z" fill="#C5192D"/>
<path d="M17.8878 8.66626L22.575 6.32961C21.9944 5.25086 21.2539 4.27109 20.3844 3.42178L16.8477 7.28245C17.2504 7.69623 17.6006 8.16096 17.8878 8.66626Z" fill="#4C9F38"/>
<path d="M5.23503 11.9978C5.23503 11.8926 5.23828 11.7871 5.24283 11.682L0.0262918 11.2152C0.00973758 11.4739 0 11.7346 0 11.9978C0 12.9985 0.124319 13.971 0.355105 14.8997L5.39376 13.4542C5.29054 12.9849 5.23503 12.4983 5.23503 11.9978Z" fill="#3F7E44"/>
<path d="M17.2307 16.286C16.8597 16.7375 16.432 17.1397 15.9585 17.4828L18.7122 21.9424C19.7345 21.2497 20.6448 20.4035 21.4094 19.4372L17.2307 16.286Z" fill="#FCC30B"/>
<path d="M18.7645 11.9976C18.7645 12.4913 18.7113 12.973 18.6094 13.4372L23.6474 14.8845C23.8772 13.9594 23.9999 12.9925 23.9999 11.9976C23.9999 11.7506 23.9918 11.5055 23.9762 11.2608L18.7597 11.7538C18.7626 11.8353 18.7645 11.9161 18.7645 11.9976Z" fill="#FF3A21"/>
<path d="M6.85321 16.3859L2.68457 19.5549C3.45988 20.5099 4.37799 21.3418 5.40644 22.0215L8.16044 17.5664C7.67526 17.2308 7.23584 16.8335 6.85321 16.3859Z" fill="#FD9D24"/>
<path d="M5.31811 10.9297C5.41093 10.3403 5.58196 9.77727 5.81757 9.24925L1.13195 6.91455C0.61399 8.01634 0.25895 9.20933 0.0976562 10.4617L5.31811 10.9297Z" fill="#0A97D9"/>
<path d="M18.0717 22.3457L15.3216 17.8917C14.8218 18.1741 14.2838 18.3958 13.7168 18.5441L14.6872 23.696C15.8947 23.4188 17.0335 22.9579 18.0717 22.3457Z" fill="#A21942"/>
<path d="M18.4099 14.1679C18.2275 14.7034 17.9808 15.209 17.6777 15.6757L21.8597 18.8298C22.5389 17.8533 23.076 16.7716 23.4431 15.614L18.4099 14.1679Z" fill="#26BDE2"/>
<path d="M12.9764 18.6945C12.6583 18.7403 12.3321 18.7659 12.0003 18.7659C11.7339 18.7659 11.4706 18.7491 11.2126 18.7192L10.2427 23.8711C10.8169 23.9555 11.4031 24 12.0003 24C12.6628 24 13.313 23.9458 13.9463 23.8419L12.9764 18.6945Z" fill="#FD6925"/>
<path d="M12.4321 5.24425C13.013 5.28158 13.5745 5.39227 14.1061 5.56787L15.9874 0.677548C14.8684 0.282194 13.6741 0.048162 12.4321 0.00434208V5.24425Z" fill="#E5243B"/>
<path d="M10.4667 18.5901C9.88028 18.4535 9.32306 18.2402 8.80608 17.9617L6.05078 22.4187C7.11071 23.0257 8.2693 23.4753 9.49798 23.7366L10.4667 18.5901Z" fill="#DD1367"/>
<path d="M9.96576 5.54346C10.5097 5.37142 11.0825 5.2669 11.6757 5.23931V5.00679e-05C10.4162 0.0338082 9.20635 0.263295 8.07178 0.656703L9.96576 5.54346Z" fill="#19486A"/>
<path d="M6.39438 15.784C6.06238 15.2929 5.79107 14.7555 5.59635 14.184L0.5625 15.6288C0.943828 16.8293 1.50852 17.9476 2.22509 18.9524L6.39438 15.784Z" fill="#CB841A"/>
<path d="M7.80763 6.68994C8.24997 6.33938 8.7371 6.04433 9.25862 5.81192L7.36594 0.927759C6.23818 1.40102 5.19967 2.04241 4.27832 2.81884L7.80763 6.68994Z" fill="#00689D"/>
</svg>
