<svg width="22" height="24" viewBox="0 0 22 24" fill="none" xmlns="http://www.w3.org/2000/svg">
<path d="M8.4815 9.024C8.0765 8.754 6.7325 7.821 6.7325 7.821C7.8665 6.1995 9.362 5.568 11.4305 5.568C12.893 5.568 14.135 6.0585 15.0215 6.99C15.908 7.9215 16.4135 9.2535 16.529 10.956C17.021 11.163 17.4735 11.405 17.8865 11.682C19.55 12.7995 20.465 14.472 20.465 16.3875C20.465 20.4615 17.126 24 11.081 24C5.891 24 0.5 20.9805 0.5 11.991C0.5 3.051 5.723 0 11.066 0C13.535 0 19.325 0.364499 21.5 7.554L19.46 8.0835C17.774 2.961 14.2445 2.145 11.009 2.145C5.6615 2.145 2.636 5.4015 2.636 12.33C2.636 18.5445 6.017 21.8445 11.081 21.8445C15.2465 21.8445 18.3515 19.68 18.3515 16.5105C18.3515 14.3535 16.5395 13.32 16.4465 13.32C16.0925 15.171 15.1445 18.285 10.9805 18.285C8.5535 18.285 6.461 16.608 6.461 14.412C6.461 11.277 9.437 10.1415 11.786 10.1415C12.665 10.1415 13.727 10.2015 14.2805 10.3125C14.2805 9.357 13.4705 7.7205 11.4305 7.7205C9.5555 7.7205 9.0815 8.328 8.48 9.0225L8.4815 9.024ZM12.074 12.285C9.014 12.285 8.618 13.59 8.618 14.409C8.618 15.726 10.1825 16.161 11.018 16.161C12.548 16.161 14.1185 15.738 14.366 12.5265C13.615 12.3513 12.8451 12.2702 12.074 12.285Z" fill="black"/>
</svg>
