<svg width="47" height="43" viewBox="0 0 47 43" fill="none" xmlns="http://www.w3.org/2000/svg">
<path d="M12.3426 30.4019C11.7185 29.4468 11.2234 28.4182 10.866 27.3441L1.08053 30.1191C1.7886 32.3881 2.8432 34.5474 4.21344 36.5138L12.3426 30.4019Z" fill="#56C22B" fill-opacity="0.15"/>
<path d="M15.0771 13.061C15.9657 12.3465 16.9393 11.7562 17.9708 11.2971L14.3143 1.83716C12.1092 2.75787 10.0406 4.01719 8.1961 5.58126L15.0771 13.061Z" fill="#DDA63A"/>
<path d="M24.1168 0.0284403L24.1232 10.1685C25.2267 10.2307 26.33 10.4345 27.4126 10.7839L31.072 1.32251C28.7906 0.523316 26.4462 0.0998701 24.1168 0.0284403Z" fill="#C5192D" fill-opacity="0.7"/>
<path d="M22.6527 10.1661L22.6463 0.0274787C20.2661 0.102794 17.9196 0.540769 15.6885 1.31458L19.3436 10.7746C20.4125 10.4337 21.5246 10.2278 22.6527 10.1661Z" fill="#4C9F38" fill-opacity="0.9"/>
<path d="M35.3424 17.8771C35.8067 18.9094 36.1359 19.9975 36.3228 21.114L46.4674 20.1894C46.1476 17.8203 45.4637 15.5128 44.4447 13.3543L35.3424 17.8771Z" fill="url(#paint0_linear_2009_4808)"/>
<path d="M29.2109 11.5182C30.0699 11.9441 30.8619 12.4519 31.5813 13.0289L38.4626 5.54876C37.052 4.35254 35.4758 3.30577 33.7448 2.44751C33.315 2.23442 32.8815 2.03706 32.4422 1.85292L28.7825 11.3163C28.9268 11.3816 29.0691 11.4479 29.2109 11.5182Z" fill="#FF3A21" fill-opacity="0.3"/>
<path d="M15.7045 33.8997C14.7592 33.2303 13.9275 32.4481 13.2127 31.5842L5.09114 37.6894C6.55991 39.5376 8.32849 41.1823 10.3683 42.5424L15.7045 33.8997Z" fill="url(#paint1_linear_2009_4808)"/>
<path d="M32.6771 14.0055C33.451 14.7836 34.1173 15.6473 34.6669 16.5753L43.7782 12.0499C42.6671 10.0303 41.25 8.1662 39.5533 6.53131L32.6771 14.0055Z" fill="#26BDE2" fill-opacity="0.1"/>
<path d="M11.9739 16.6664C12.5421 15.6919 13.221 14.8145 13.987 14.0448L7.10761 6.56586C5.45047 8.1639 4.00881 10.0316 2.85679 12.146L11.9739 16.6664Z" fill="#E8203A"/>
<path d="M10.358 21.199C10.5298 20.1081 10.8441 19.0253 11.31 17.9735L2.19394 13.4536C1.16172 15.6654 0.513067 17.9599 0.21484 20.2654L10.358 21.199Z" fill="#19486A"/>
<path d="M10.4834 25.9286C10.2565 24.8596 10.1651 23.7609 10.2124 22.6567L0.0748969 21.7231C-0.0784927 24.0856 0.137975 26.4386 0.690865 28.705L10.4834 25.9286Z" fill="#00689D" fill-opacity="0.6"/>
<defs>
<linearGradient id="paint0_linear_2009_4808" x1="41.2662" y1="17.1379" x2="41.2716" y2="21.7433" gradientUnits="userSpaceOnUse">
<stop stop-color="#FCC30B" stop-opacity="0.05"/>
<stop offset="1" stop-color="#FCC30B" stop-opacity="0"/>
</linearGradient>
<linearGradient id="paint1_linear_2009_4808" x1="12.6178" y1="34.8557" x2="15.1967" y2="39.467" gradientUnits="userSpaceOnUse">
<stop stop-color="#0A97D9" stop-opacity="0.05"/>
<stop offset="1" stop-color="#0A97D9" stop-opacity="0"/>
</linearGradient>
</defs>
</svg>
