<svg width="166" height="50" viewBox="0 0 166 50" fill="none" xmlns="http://www.w3.org/2000/svg">
<path d="M26.1265 42.2003L18.4594 19.4536H23.2951L27.3036 32.6244L28.2898 36.2512H28.3534C28.714 34.8089 29.0427 33.6 29.3396 32.6244L33.3163 19.4536H37.993L30.3259 42.2003H26.1265ZM39.4616 42.2003V25.8799H43.7883V42.2003H39.4616ZM39.4616 23.3348V19.4536H43.7883V23.3348H39.4616ZM53.1934 42.6775C50.8604 42.6775 49.0364 42.1685 47.7215 41.1505C46.4065 40.1112 45.6854 38.7008 45.5581 36.9193H49.5667C49.8424 38.722 51.0301 39.6234 53.1298 39.6234C54.0842 39.6234 54.8159 39.4537 55.3249 39.1144C55.8551 38.775 56.1203 38.3191 56.1203 37.7464C56.1203 37.5343 56.0778 37.3434 55.993 37.1738C55.9294 37.0041 55.8021 36.8556 55.6112 36.7284C55.4416 36.5799 55.2825 36.4633 55.134 36.3784C55.0068 36.2936 54.7735 36.2087 54.4341 36.1239C54.0948 36.0391 53.8297 35.9754 53.6388 35.933C53.4691 35.8906 53.1616 35.8376 52.7162 35.774C52.292 35.6891 51.9951 35.6255 51.8254 35.5831C50.9346 35.4134 50.2029 35.2437 49.6303 35.0741C49.0788 34.8832 48.4956 34.6181 47.8805 34.2787C47.2655 33.9182 46.7989 33.441 46.4807 32.8471C46.1838 32.232 46.0353 31.5003 46.0353 30.652C46.0353 28.9552 46.6504 27.6615 47.8805 26.7707C49.1319 25.8799 50.7332 25.4345 52.6844 25.4345C54.7841 25.4345 56.4278 25.9223 57.6155 26.898C58.8244 27.8524 59.5137 29.1673 59.6834 30.8428H55.7703C55.6006 29.2522 54.5508 28.4568 52.6208 28.4568C51.7512 28.4568 51.0619 28.6159 50.5529 28.934C50.0651 29.2522 49.8212 29.6976 49.8212 30.2702C49.8212 30.4611 49.853 30.6414 49.9166 30.811C50.0014 30.9595 50.1287 31.0974 50.2984 31.2246C50.4892 31.3307 50.6695 31.4261 50.8392 31.5109C51.0089 31.5746 51.2528 31.6488 51.5709 31.7336C51.889 31.7973 52.1648 31.8609 52.3981 31.9245C52.6314 31.9669 52.9495 32.0306 53.3525 32.1154C53.7554 32.179 54.0736 32.232 54.3069 32.2745C54.9856 32.4229 55.537 32.5608 55.9612 32.688C56.4066 32.7941 56.9156 32.985 57.4882 33.2607C58.0609 33.5152 58.5063 33.8121 58.8244 34.1515C59.1638 34.4696 59.4501 34.915 59.6834 35.4876C59.9379 36.0391 60.0652 36.686 60.0652 37.4283C60.0652 39.0402 59.4289 40.3233 58.1563 41.2777C56.905 42.2109 55.2507 42.6775 53.1934 42.6775ZM76.0431 40.2279C74.4524 41.861 72.4057 42.6775 69.903 42.6775C67.4004 42.6775 65.3537 41.861 63.763 40.2279C62.1723 38.5736 61.377 36.5163 61.377 34.056C61.377 31.5958 62.1723 29.5491 63.763 27.916C65.3537 26.2617 67.4004 25.4345 69.903 25.4345C72.4057 25.4345 74.4524 26.2617 76.0431 27.916C77.6337 29.5491 78.4291 31.5958 78.4291 34.056C78.4291 36.5163 77.6337 38.5736 76.0431 40.2279ZM69.903 39.3689C71.1968 39.3689 72.2042 38.8917 72.9253 37.9373C73.6676 36.9617 74.0388 35.6679 74.0388 34.056C74.0388 32.4441 73.6676 31.1504 72.9253 30.1748C72.2042 29.1991 71.1968 28.7113 69.903 28.7113C68.5881 28.7113 67.57 29.1991 66.8489 30.1748C66.1278 31.1292 65.7673 32.4229 65.7673 34.056C65.7673 35.6679 66.1278 36.9617 66.8489 37.9373C67.57 38.8917 68.5881 39.3689 69.903 39.3689ZM84.6079 25.8799V28.4886H84.7033C85.2123 27.5342 85.7744 26.8343 86.3894 26.3889C87.0045 25.9223 87.7786 25.689 88.7118 25.689C89.1572 25.689 89.4966 25.7315 89.7299 25.8163V29.6021H89.6344C88.171 29.4537 86.9939 29.7718 86.1031 30.5565C85.2123 31.3413 84.767 32.5714 84.767 34.2469V42.2003H80.4403V25.8799H84.6079ZM91.1801 42.2003C91.2438 40.8641 91.4665 39.687 91.8482 38.669C92.2512 37.651 92.9193 36.7178 93.8525 35.8694C94.8069 35.021 95.5492 34.4166 96.0794 34.056C96.6309 33.6743 97.5853 33.091 98.9427 32.3063C98.9851 32.2639 99.0169 32.2426 99.0381 32.2426C99.0593 32.2214 99.0911 32.2002 99.1335 32.179C99.176 32.1578 99.2078 32.1366 99.229 32.1154C99.2714 32.0942 99.3138 32.073 99.3562 32.0518C101.032 31.0761 102.219 30.2384 102.919 29.5385C103.619 28.8174 103.969 27.8524 103.969 26.6434C103.969 25.3073 103.534 24.2256 102.665 23.3985C101.816 22.5713 100.671 22.1577 99.229 22.1577C97.7656 22.1577 96.6097 22.6137 95.7613 23.5257C94.9341 24.4165 94.5206 25.8693 94.5206 27.8842H91.721C91.721 25.3179 92.4103 23.3454 93.7888 21.9668C95.1674 20.6095 97.055 19.9308 99.4517 19.9308C101.636 19.9308 103.397 20.5564 104.733 21.8078C106.069 23.0591 106.737 24.6604 106.737 26.6116C106.737 27.3964 106.62 28.1175 106.387 28.775C106.154 29.4324 105.91 29.9627 105.655 30.3656C105.401 30.7686 104.934 31.2352 104.256 31.7654C103.577 32.2745 103.068 32.6244 102.728 32.8153C102.41 33.0062 101.774 33.3667 100.82 33.897C100.629 34.003 100.48 34.0878 100.374 34.1515C99.3562 34.7241 98.5079 35.2225 97.8292 35.6467C97.1717 36.0709 96.4824 36.6647 95.7613 37.4283C95.0402 38.1706 94.5842 38.9129 94.3933 39.6552H106.292V42.2003H91.1801ZM117.734 42.6775C115.083 42.6775 113.004 41.6595 111.498 39.6234C110.014 37.5661 109.271 34.7877 109.271 31.2882C109.271 27.7675 110.035 24.9891 111.562 22.9531C113.11 20.917 115.178 19.899 117.766 19.899C120.353 19.899 122.4 20.917 123.906 22.9531C125.433 24.9679 126.196 27.7463 126.196 31.2882C126.196 34.8089 125.454 37.5873 123.969 39.6234C122.506 41.6595 120.427 42.6775 117.734 42.6775ZM113.471 37.9691C114.446 39.5598 115.878 40.3551 117.766 40.3551C119.653 40.3551 121.064 39.5704 121.997 38.0009C122.951 36.4102 123.428 34.1727 123.428 31.2882C123.428 28.4462 122.941 26.2193 121.965 24.6074C121.011 22.9955 119.611 22.1895 117.766 22.1895C115.878 22.1895 114.446 22.9849 113.471 24.5756C112.516 26.1662 112.039 28.4038 112.039 31.2882C112.039 34.1303 112.516 36.3572 113.471 37.9691ZM136.858 42.6775C134.376 42.6775 132.319 41.9988 130.686 40.6414C129.053 39.2841 128.215 37.4071 128.172 35.0104H130.813C130.855 36.7496 131.396 38.0964 132.435 39.0508C133.496 39.984 134.938 40.4506 136.762 40.4506C138.332 40.4506 139.583 40.0688 140.516 39.3053C141.449 38.5205 141.916 37.3752 141.916 35.8694C141.916 34.4908 141.418 33.441 140.421 32.7199C139.445 31.9987 138.035 31.6382 136.189 31.6382H134.821V29.5703H136.158C137.833 29.5703 139.106 29.2416 139.975 28.5841C140.845 27.9266 141.28 27.004 141.28 25.8163C141.28 24.6498 140.824 23.7272 139.912 23.0485C139.021 22.3486 137.897 21.9987 136.539 21.9987C134.991 21.9987 133.761 22.4653 132.849 23.3985C131.958 24.3104 131.513 25.53 131.513 27.057H128.904C128.925 24.8937 129.625 23.1652 131.004 21.8714C132.382 20.5564 134.259 19.899 136.635 19.899C138.713 19.899 140.442 20.4398 141.82 21.5215C143.199 22.5819 143.888 24.0347 143.888 25.8799C143.888 28.1281 142.69 29.6551 140.293 30.4611V30.5565C143.22 31.3201 144.684 33.1758 144.684 36.1239C144.684 38.16 143.941 39.7613 142.457 40.9278C140.993 42.0943 139.127 42.6775 136.858 42.6775ZM155.575 42.6775C152.924 42.6775 150.845 41.6595 149.339 39.6234C147.855 37.5661 147.112 34.7877 147.112 31.2882C147.112 27.7675 147.876 24.9891 149.403 22.9531C150.951 20.917 153.019 19.899 155.606 19.899C158.194 19.899 160.241 20.917 161.747 22.9531C163.274 24.9679 164.037 27.7463 164.037 31.2882C164.037 34.8089 163.295 37.5873 161.81 39.6234C160.347 41.6595 158.268 42.6775 155.575 42.6775ZM151.312 37.9691C152.287 39.5598 153.719 40.3551 155.606 40.3551C157.494 40.3551 158.904 39.5704 159.838 38.0009C160.792 36.4102 161.269 34.1727 161.269 31.2882C161.269 28.4462 160.781 26.2193 159.806 24.6074C158.851 22.9955 157.452 22.1895 155.606 22.1895C153.719 22.1895 152.287 22.9849 151.312 24.5756C150.357 26.1662 149.88 28.4038 149.88 31.2882C149.88 34.1303 150.357 36.3572 151.312 37.9691Z" fill="#0A5959"/>
<path d="M12.3426 30.4019C11.7185 29.4468 11.2234 28.4182 10.866 27.3441L1.08053 30.1191C1.7886 32.3881 2.8432 34.5474 4.21344 36.5138L12.3426 30.4019Z" fill="#56C22B" fill-opacity="0.15"/>
<path d="M15.0771 13.061C15.9657 12.3465 16.9393 11.7562 17.9708 11.2971L14.3143 1.83716C12.1092 2.75787 10.0406 4.01719 8.1961 5.58126L15.0771 13.061Z" fill="#DDA63A"/>
<path d="M24.1168 0.0284403L24.1232 10.1685C25.2267 10.2307 26.33 10.4345 27.4126 10.7839L31.072 1.32251C28.7906 0.523316 26.4462 0.0998701 24.1168 0.0284403Z" fill="#C5192D" fill-opacity="0.7"/>
<path d="M22.6527 10.1661L22.6463 0.0274787C20.2661 0.102794 17.9196 0.540769 15.6885 1.31458L19.3436 10.7746C20.4125 10.4337 21.5246 10.2278 22.6527 10.1661Z" fill="#4C9F38" fill-opacity="0.9"/>
<path d="M35.3424 17.8771C35.8067 18.9094 36.1359 19.9975 36.3228 21.114L46.4674 20.1894C46.1476 17.8203 45.4637 15.5128 44.4447 13.3543L35.3424 17.8771Z" fill="url(#paint0_linear_2009_4806)"/>
<path d="M29.2109 11.5182C30.0699 11.9441 30.8619 12.4519 31.5813 13.0289L38.4626 5.54876C37.052 4.35254 35.4758 3.30577 33.7448 2.44751C33.315 2.23442 32.8815 2.03706 32.4422 1.85292L28.7825 11.3163C28.9268 11.3816 29.0691 11.4479 29.2109 11.5182Z" fill="#FF3A21" fill-opacity="0.3"/>
<path d="M15.7045 33.8997C14.7592 33.2303 13.9275 32.4481 13.2127 31.5842L5.09114 37.6894C6.55991 39.5376 8.32849 41.1823 10.3683 42.5424L15.7045 33.8997Z" fill="url(#paint1_linear_2009_4806)"/>
<path d="M32.6771 14.0055C33.451 14.7836 34.1173 15.6473 34.6669 16.5753L43.7782 12.0499C42.6671 10.0303 41.25 8.1662 39.5533 6.53131L32.6771 14.0055Z" fill="#26BDE2" fill-opacity="0.1"/>
<path d="M11.9739 16.6664C12.5421 15.6919 13.221 14.8145 13.987 14.0448L7.10761 6.56586C5.45047 8.1639 4.00881 10.0316 2.85679 12.146L11.9739 16.6664Z" fill="#E8203A"/>
<path d="M10.358 21.199C10.5298 20.1081 10.8441 19.0253 11.31 17.9735L2.19394 13.4536C1.16172 15.6654 0.513067 17.9599 0.21484 20.2654L10.358 21.199Z" fill="#19486A"/>
<path d="M10.4834 25.9286C10.2565 24.8596 10.1651 23.7609 10.2124 22.6567L0.0748969 21.7231C-0.0784927 24.0856 0.137975 26.4386 0.690865 28.705L10.4834 25.9286Z" fill="#00689D" fill-opacity="0.6"/>
<defs>
<linearGradient id="paint0_linear_2009_4806" x1="41.2662" y1="17.1379" x2="41.2716" y2="21.7433" gradientUnits="userSpaceOnUse">
<stop stop-color="#FCC30B" stop-opacity="0.05"/>
<stop offset="1" stop-color="#FCC30B" stop-opacity="0"/>
</linearGradient>
<linearGradient id="paint1_linear_2009_4806" x1="12.6178" y1="34.8557" x2="15.1967" y2="39.467" gradientUnits="userSpaceOnUse">
<stop stop-color="#0A97D9" stop-opacity="0.05"/>
<stop offset="1" stop-color="#0A97D9" stop-opacity="0"/>
</linearGradient>
</defs>
</svg>
